<?xml version="1.0" encoding="UTF-8"?>
<svg id="Layer_2" width= "200" height= "200" data-name="Layer 2" xmlns="http://www.w3.org/2000/svg" viewBox="0 0 504.27 493.13">
  <defs>
    <style>
      .cls-1 {
        fill: #0d131a;
      }

      .cls-1, .cls-2, .cls-3, .cls-4, .cls-5, .cls-6, .cls-7 {
        stroke-width: 0px;
      }

      .cls-2 {
        fill: #e50020;
      }

      .cls-3 {
        fill: #fff;
      }

      .cls-4 {
        fill: #fff697;
      }

      .cls-5 {
        fill: #efe908;
      }

      .cls-6 {
        fill: #f29600;
      }

      .cls-7 {
        fill: #008086;
      }
    </style>
  </defs>
  <g id="katman_1" data-name="katman 1">
    <g>
      <path class="cls-5" d="m406.73,239.19l.43-.57s.08-.08.13-.13c-1.02,1.86-1.53,3.79-1.53,5.79,0,.88.23,1.91.7,3.07.33.74,1.25,1.28,2.79,1.6,1.49.23,2.28.67,2.37,1.32.09.74-.42,1.58-1.53,2.51l-2.65,2.3c-.7.88-1.07,1.79-1.12,2.72-.09,1.07.28,1.88,1.12,2.44.93.65,2.28-.26,4.04-2.72l3.97-5.37c1.49-1.25,4.69-3.07,9.62-5.44l-4.46,3.83c-.65.56-1.28,1.37-1.88,2.44l-.7,1.46,2.79-1.88c2.23-1.44,4.21-2.65,5.93-3.63,2.79-1.49,7.39-3.42,13.8-5.79l-18.34,13.18c-2.18,1.72-4.3,3.83-6.34,6.34-1.91,2.42-3.11,4.39-3.63,5.93-.42,1.16-1.39,2.37-2.93,3.63l-3.21,2.44c-.42.46-.53,1.14-.35,2.02l.07,3.49c-.19.79-.65,1.51-1.39,2.16l-10.32-11.15-4.46-3.97-2.44-1.74,2.62,3.56-2.62-2.3.98,5.51-2.79-3.76.59,2.75-1.35-2.47.28,2.37c.42,2.14,1.14,4.69,2.16,7.67h0s-.13-.35-.13-.35l-2.72.28-1.88.63c-.51.09-1-.07-1.46-.49l-1.39-1.32c-.37-.33-.42-.72-.14-1.19l.98-1.74c.28-.93.28-2.3,0-4.11-.28-1.95-.74-3.28-1.39-3.97-.65-.74-2.02-1.74-4.11-3-2.23-1.39-3.81-2.09-4.74-2.09-.84,0-1.84.28-3,.84l-2.23,1.05c-.84.23-1.49-.12-1.95-1.05-2.6-6.18-3.32-9.88-2.16-11.09,1.16-1.12,2.81-2.07,4.95-2.86l4.67-2.65c1.12-.88,1.77-1.58,1.95-2.09.28-.93.26-1.81-.07-2.65l-1.6-2.72-1.95-3.21c-.09-.26-.16-.52-.22-.77.79.34,1.61.69,2.45,1.05l4.11,1.74,2.65.35c1.21-.14,2.51-.88,3.9-2.23l6.07-6.62c2.55-3.02,4.64-5.38,6.26-7.09.08.3.13.59.22.89.28.98.93,2.14,1.95,3.49.65.93.98,2.05.98,3.35l-.35,4.88c-.42,1.63-.23,2.51.56,2.65,1.07.19,2.11-1.16,3.14-4.04v-2.44c-.14-.93.14-2.14.84-3.63.74-1.72,1.32-2.53,1.74-2.44.19.05.21.44.07,1.19l-.35,2.58c0,.56.19,1.12.56,1.67l.56.77.07,1.67-.84,2.79-1.46,3.63-1.32,3.97c-.37,1.35-.49,2.51-.35,3.49l.7,2.51c.28.6.56.86.84.77l.63-1.25.84-2.65c1.07-2.46,2.35-4.49,3.83-6.07Z"/>
      <path class="cls-2" d="m386.93,278.44l.13.35,1.4,3.76-.7-.14c-1.07-.23-2.42.51-4.04,2.23l-3.63,3.28c-1.44.37-4.23-.81-8.37-3.56-.74-.51-1.09-1.19-1.05-2.02.09-1.35,0-2.39-.28-3.14-.42-1.21-1.25-2.14-2.51-2.79-1.63-.6-2.93-1.19-3.9-1.74l-5.3.28-5.02,2.02c-1.16.28-2.39-.51-3.7-2.37-.98-1.44-1.79-3.11-2.44-5.02l-1.05-3.7c-.19-1.16.07-2.3.77-3.42.65-1.07,1.02-3.65,1.12-7.74l-.06-3.7c.37-.48.72-.91,1.04-1.25.23-.33.98-.7,2.23-1.12l2.86-1.12,3.28-2.16c.88-.65,1.51-1.35,1.88-2.09.56-1.12.63-4.18.21-9.2-.11-1.28-.22-2.42-.34-3.43,2.45.88,5.43,2.06,8.97,3.56.06.26.13.52.22.77l1.95,3.21,1.6,2.72c.33.84.35,1.72.07,2.65-.19.51-.84,1.21-1.95,2.09l-4.67,2.65c-2.14.79-3.79,1.74-4.95,2.86-1.16,1.21-.44,4.9,2.16,11.09.46.93,1.12,1.28,1.95,1.05l2.23-1.05c1.16-.56,2.16-.84,3-.84.93,0,2.51.7,4.74,2.09,2.09,1.25,3.46,2.25,4.11,3,.65.7,1.12,2.02,1.39,3.97.28,1.81.28,3.18,0,4.11l-.98,1.74c-.28.46-.23.86.14,1.19l1.39,1.32c.46.42.95.58,1.46.49l1.88-.63,2.72-.28Zm10.6-60.24c-.69.33-1.91,1.41-3.63,3.23.08.3.13.59.22.89.28.98.93,2.14,1.95,3.49.65.93.98,2.05.98,3.35l-.35,4.88c-.42,1.63-.23,2.51.56,2.65,1.07.19,2.11-1.16,3.14-4.04v-2.44c-.14-.93.14-2.14.84-3.63.74-1.72,1.32-2.53,1.74-2.44.19.05.21.44.07,1.19l-.35,2.58c0,.56.19,1.12.56,1.67l.56.77.07,1.67-.84,2.79-1.46,3.63-1.32,3.97c-.37,1.35-.49,2.51-.35,3.49l.7,2.51c.28.6.56.86.84.77l.63-1.25.84-2.65c1.07-2.46,2.35-4.49,3.83-6.07l.43-.57.68-.9c.65-.65,2.02-1.3,4.11-1.95,1.63-.51,2.67-1.49,3.14-2.93.46-1.25.7-2.7.7-4.32,0-1.35.21-2.46.63-3.35.42-.84.91-1.58,1.46-2.23.28-.42.21-1.07-.21-1.95l-2.58-3.49c-.46-.65-.78-1.32-.96-1.99-.61,0-1.21,0-1.83.03-6.93.33-11.85,1.21-14.78,2.65Z"/>
      <path class="cls-4" d="m280.46,441.48v.16c-2.53,4.16-4.48,8.16-5.85,12-16.2-2.06-31.77-7.28-46.7-15.67-6.3-3.52-12.42-7.58-18.38-12.16,14.55,5.35,30.52,7.64,47.93,6.84,5.08-.23,9.84-.83,14.29-1.78,2.71,2.15,5.47,3.94,8.3,5.34l.41,5.27Zm113.51-19.15c-17.06,11.99-34.73,19.09-52.98,21.3.39.43.75.84,1.04,1.22l3.21,3.9,2.37,2.79c.72.42,1.35.86,1.91,1.31,23.43-6.18,43.6-21.36,60.49-45.58-4.97,6-10.32,11.02-16.04,15.06Zm-136.51,7.11c3.9-.19,7.6-.62,11.11-1.29-2.41-2.22-4.76-4.73-7.07-7.57-2.94-3.61-5.22-7.84-6.87-12.67-1.11-3.26-1.95-6.79-2.47-10.61l-.56-12.48c.22-5.87,1.93-11.72,5.11-17.54-.27-3.01-.52-6.13-.72-9.37-1.3-21.1-7-41.16-17.08-60.17-11.29-21.29-24.22-32.49-38.76-33.6-12.13-.88-22.68,3.6-31.65,13.46-6.46,7.11-11.78,16.62-15.97,28.51-7.53,27.28-5.14,51.45,7.18,72.51l3.9,6.2c12.04,17.94,27.68,30.54,46.92,37.79,14.13,5.3,29.77,7.58,46.92,6.83Z"/>
      <path class="cls-6" d="m155.26,379.46c-1.3-2.22-2.47-4.48-3.55-6.76-6.34-13.43-8.9-27.95-7.72-43.56-6.89,6.43-12.82,14.11-17.74,23.06-6.14,11.2-8.53,21.61-7.18,31.23.79,6.04,3.04,11.5,6.76,16.38,2.97,4,5.25,6.51,6.83,7.53l1.6,1.05c1.16.7,2.11,1.16,2.86,1.39l3,1.12,3.83.84-7.39-.56-2.72-.84-.28,1.95c-.46,1.12-1.58,2.67-3.35,4.67-2.28,2.56-4.79,4.79-7.53,6.69l-9.98,6.23c1,.8,1.63,2.39,1.89,4.79v3.14l-.08.63c.64-.37,1.29-.74,1.97-1.12l.42-.21c.46-.28,1.14-.28,2.02,0,1.12.46,2.35,1.46,3.7,3,1.53,1.67,2.63,3.44,3.28,5.3.54,1.53.85,2.96,1,4.3,1.73-1.73,2.89-2.84,3.47-3.33.37-.28.98-.4,1.81-.35,1.39.19,3.07.84,5.02,1.95,2.09,1.21,3.6,2.49,4.53,3.83.42.62.75,1.22,1.05,1.81.59,1.18.95,2.3,1.04,3.35.14,1.07,0,1.86-.42,2.37-.06.09-.19.18-.37.26.68.12,1.23.15,1.63.09,1.67-.28,3.11-.93,4.32-1.95l2.86-2.44,7.18-4.46c3.9-2.37,6.34-3.65,7.32-3.83l8.37-2.58,3.9-1.46c1.58-.88,2.65-2.05,3.21-3.49.14-.42.09-1.6-.14-3.56l-1.25-5.79c-.6-2.05-1.19-3.25-1.74-3.63-.46-.28-1.37-.51-2.72-.7l-1.95-.28,2.23-1.53c1.61-1.07,2.8-1.82,3.59-2.24.01,0,.02,0,.03.01l.07-.07c1.35-.65,3.28-2.05,5.79-4.18,1.04-.89,2-1.62,2.87-2.2-13.36-8.76-24.48-20.71-33.34-35.87Zm-14.22,35.7c-1.07-.19-2.14-.6-3.21-1.25-.93-.6-1.32-1-1.19-1.19l1.39.42,2.93.98,3.83.35,2.16.28-2.09.56-3.83-.14Zm359.32-171.02v15.27l-.21,15.48c-.19,1.63-.49,2.81-.91,3.56-.56.98-1.37,1.44-2.44,1.39-.7-.05-1.21-.98-1.53-2.79-.23-1.25-.35-2.65-.35-4.18l-.14-6.2-4.74-51.38v-.28c-4.6-17.01-14.2-38.32-28.79-63.93-13.25-23.19-23.82-38.72-31.72-46.57-2.18-2.23-11.97-6.25-29.35-12.06-16.08-5.44-24.63-8.16-25.66-8.16-2.88-.23-5.81.4-8.78,1.88-2.97,1.53-5.25,3.58-6.83,6.14-1.58,2.51-5.81,16.83-12.69,42.95-2.05,7.95-4.25,19.73-6.62,35.35-1.35,8.83-2.23,13.66-2.65,14.5-.74,1.39-6.55,6-17.43,13.8l-7.95,5.86c-1.58,1.3-3.25,3.37-5.02,6.2-.44.68-.97,1.57-1.58,2.65l-.58-.42-3.07-.84c-2.74-.23-5.04.51-6.9,2.23-1.16,1.03-2.01,2.21-2.58,3.55-1.24.95-2.15,2.64-2.72,5.1-.08.37-.15.74-.2,1.11-.78.24-1.5.48-2.17.71-3.53,1.21-8.16,6.93-13.87,17.15,0,0,0,.01,0,.02-.43-1.77-1-3.3-1.73-4.55-1.81-2.97-4.95-5.28-9.41-6.9-.56-.2-1.18-.35-1.85-.45l.11-.31c1.21-3.11,2.23-4.97,3.07-5.58,1.16-.79,3.11-1.16,5.86-1.12l3.7.28,13.18-8.92,16.1-11.02c1.91-1.44,6.44-5.62,13.59-12.55,7.11-6.93,10.85-10.78,11.22-11.57,2.37-5.11,6.76-21.71,13.18-49.78,6.6-29,9.64-46.08,9.13-51.24-.19-1.81-2.79-6.23-7.81-13.25l-9.48-12.41c-1.35-1.67-2.28-3.6-2.79-5.79-.6-2.32-.51-4.18.28-5.58.79-1.35,2.37-1.56,4.74-.63,2.09.79,4.23,2.18,6.41,4.18l11.29,11.5,10.39,10.53,5.93.98,8.16,1.74c1.91.65,11.81,5.28,29.7,13.87l12.13,3.42c6.18,1.58,9.53,2.6,10.04,3.07,4.42,4.23,13.9,18.75,28.44,43.57l22.03,38.07,6.55,8.85,5.37,8.16c1.53,3.86,3.58,12.99,6.14,27.4,2.56,14.27,3.83,23.59,3.83,27.96Zm-81.22,76.55c4.6,13.39,6.9,24.98,6.9,34.79,0,13.66-3.3,26.52-9.9,38.55-6,10.88-13.87,19.61-23.63,26.21-17.64,11.91-35.87,18.67-54.69,20.28-2.08-1.88-4.73-4.05-7.98-6.55,0-2.28.19-4.53.56-6.76.77-1.32,1.54-2.78,2.3-4.36.94-1.95,1.86-4.09,2.78-6.44,3.39-8.46,5.09-16.34,5.09-23.63,0,0,0-.01,0-.02,5.28.17,10.67-.57,16.17-2.21,14.97-4.46,27.56-15.22,37.79-32.28,6.6-11.02,9.11-24.08,7.53-39.18-1.16-10.88-4.3-22.19-9.41-33.95-2.56-5.86-4.74-10.32-6.55-13.39l-.11-.52-.59-2.75,2.79,3.76-.98-5.51,2.62,2.3.23.21,1.85,2.62.37.52.29.42,8.44,11.36c7.3,10.41,13.34,22.59,18.13,36.53Zm-199.78-165.29l1.15-.92c-.37.5-.75.79-1.15.92Zm-153.34-37.94c-10.88,9.48-17.31,15.5-19.31,18.06-5.72,7.25-12.97,24.03-21.75,50.34-4.42,13.15-8.27,25.73-11.57,37.72-.74,3.07-1.37,15.22-1.88,36.46l-.63,12.34c0,1.07-.21,2-.63,2.79-.42.74-.88,1.12-1.39,1.12-.65,0-1.12-.19-1.39-.56-.51-.56-.84-1.63-.98-3.21l-.91-14.22-.77-13.59c.05-4.93,1.39-13.73,4.04-26.42,2.32-11.34,4.58-20.64,6.76-27.89,3.25-10.88,7.16-22.52,11.71-34.93,3.81-10.23,6.23-16.27,7.25-18.13,1.44-2.6,7.37-10.06,17.78-22.38,10.46-12.41,16.96-19.64,19.52-21.68,2.14-1.72,6.37-4,12.69-6.83,3.16-1.44,6.11-2.7,8.85-3.76l30.88-25.45c2.56-2.14,5.11-3.6,7.67-4.39,2.65-.79,4.39-.6,5.23.56,1.67,2.42,1.23,5.02-1.32,7.81-11.71,12.46-18.71,20.1-20.98,22.94-1.49,1.91-1.98,6.41-1.46,13.53.33,4.74,1.07,10.25,2.23,16.52.74,4.23,2.63,9.95,5.65,17.15,3.07,7.25,5.72,12.25,7.95,14.99l19.1,22.31c1.3,1.72,2.44,5.53,3.42,11.43,1.21,7.25,2.14,11.81,2.79,13.66,1.21,3.53,2.44,6.67,3.69,9.41l4.67,9.06c1.72,3.21,4.6,7.25,8.64,12.13,3.76,4.51,6.02,6.9,6.76,7.18l2.51-.77c.88-.44,1.63-.65,2.24-.65-.92,2.97-1.91,5.83-2.97,8.59-.08,0-.16,0-.25,0-3.11.06-5.82.25-8.16.55-1.05-1.95-1.87-3.26-2.44-3.9-4.97-5.72-9.06-9.64-12.27-11.78-.88-1.02-3.14-8.64-6.76-22.87l-3.35-12.83-1.67-5.51-2.58-8.16c-1.02-2.46-2.21-4.3-3.56-5.51l-10.74-10.46c-5.21-5.35-8.04-8.64-8.51-9.9l-3.83-11.29c-6.14-18.41-9.48-28.03-10.04-28.86-1.21-2-4.35-3.63-9.41-4.88-4.6-1.12-8.3-1.46-11.09-1.05-1.72.28-8.2,5.35-19.45,15.2Zm59.26,169.76c1.53-.09,3.93-1,7.18-2.72,4.97-2.56,8.48-4.28,10.53-5.16,5.28-2.16,12.27-5.49,20.93-9.95,2.17-3.92,4.51-7.9,7.02-11.94,2.86-4.6,5.43-9.64,7.72-15.12-4.83.2-8.44.8-10.79,1.8-4.23,1.81-7.39,4.35-9.48,7.6-1.02,1.63-1.65,3.07-1.88,4.32l-14.36,6.07-9.76,3.76-6.48,2.23c-3.3.88-8.23-.95-14.78-5.51l-8.85-7.04c-.84-2.14-.93-3.86-.28-5.16l2.65-5.23c1.35-2.7,2.11-4.55,2.3-5.58.28-1.35-.21-3.56-1.46-6.62-1.35-3.25-2.74-5.07-4.18-5.44l-1.24-.11c1.03.6,1.86,1.43,2.49,2.48.74,1.25,1.12,2.65,1.12,4.18l-.28,2.44c-.28,2.18-.86,3.76-1.74,4.74-.7.84-2.65,2.02-5.86,3.56-3.3,1.58-5.58,2.39-6.83,2.44-.93.05-1.7-.23-2.3-.84-1.07-1.07-1.25-3.63-.56-7.67.51-3.02,1.12-5.29,1.83-6.82l-1.27.62c-2.37-.19-4.02-.93-4.95-2.23l-3.07-4.11-2.93-3.35-4.67-.77-6.41.35c-1.69.69-2.89,1.53-3.63,2.5.05-.02.09-.04.15-.06l3.14-.7c2.88-.14,5.21.79,6.97,2.79,1.49,1.72,2.16,3.76,2.02,6.14-.23,2.05-.91,3.56-2.02,4.53l-2.93,2.65c-1.58,1.58-2.56,2.67-2.93,3.28-.51.74-.81,2.14-.91,4.18l-.49,1.81-.21.35-2.44.07h-.14c-.63-.13-1.29-.43-1.98-.89l-1.37,1.3-3.56,4.53c-.93,1.49-1.44,2.93-1.53,4.32-.04.52-.03.99.02,1.43.53-1.07,1.1-1.88,1.72-2.4.98-.88,2.35-1.49,4.11-1.81,1.77-.33,3.3,0,4.6.98.98.7,1.72,1.65,2.23,2.86l1.41,2.22,3.05-3.27,1.67,3.49c1.63,2.6,3.65,4.6,6.07,6,2.84,1.58,5.44,1.98,7.81,1.19,1.21-.37,2.14-.93,2.79-1.67l3.7-2.58-1.05,1.74c-.65,1.16-.88,1.81-.7,1.95,5.11,4.42,10.13,8.13,15.06,11.15,8.04,4.88,14.71,7.11,20.01,6.69Zm-33.74-29.77c-.14,0-.28,0-.42-.01-2.48-.06-5.08-.68-7.8-1.87-3.39-1.44-5.32-3.23-5.79-5.37-.08-.34-.12-.69-.14-1.05-.02-.25-.02-.52,0-.78,0-.06,0-.12,0-.19.13-1.99.99-4.31,2.58-6.96.07-.12.13-.24.21-.36.52-.83.99-1.54,1.41-2.15,1.37-2,2.21-2.87,2.49-2.59l-2.86,4.95c-1.91,3.67-2.63,6.6-2.16,8.78.42,1.67,2.09,3.23,5.02,4.67,2.74,1.35,5.28,2.02,7.6,2.02,1.63,0,3.37-.4,5.23-1.19l2.3-1.05c-2.09,2.09-4.65,3.14-7.67,3.14Zm255.31,197.58l-1.6-.84-6.69-8.44c-1.21-1.63-3.46-3.83-6.76-6.62l-4.6-3.7c-.33-.28-.44-1.42-.35-3.42.05-1.95.23-3.74.56-5.37l2.79-7.67c1.91-5.3,3.3-10.5,4.18-15.62,1.35-7.44,1.51-14.76.49-21.96-1.39-9.44-4.88-19.73-10.46-30.88-5.02-10.09-10.43-18.41-16.24-24.96l-8.99-9.06c-.2-.27-.41-.57-.61-.87-.81-1.21-1.61-2.68-2.39-4.43l-1.19-2.86-.02.03c-.36-.93-.73-1.87-1.1-2.81-1.25-3.17-3.12-7.07-5.57-11.66l-6-6.19-4.81-3.49-5.02-3.28c-1.91-1.3-4.18-2.56-6.83-3.76l-3.42-1.39-2.65-.21-3,.56-1.6.49,3.07-2.16c-2.79-.37-4.21-.79-4.25-1.25-.05-.28.3-.46,1.05-.56h1.19,0s2.79.35,2.79.35c7.76,1.25,13.06,2.86,15.9,4.81,2.14,1.44,4.9,3.58,8.3,6.41l7.11,5.79c1.44,1.07,3.51,3.25,6.2,6.55,2.56,3.11,4.21,4.86,4.95,5.23,1.3.74,3.35,1,6.14.77,3.02-.23,5.53-1,7.53-2.3,2.28-1.49,4-3.09,5.16-4.81,1.35-2.05,3.16-6,5.44-11.85,1.95-5.07,3.46-10.32,4.53-15.76l1.05-6.55,3.42-.56c2.42-.65,4-1.6,4.74-2.86.33-.65,1.46-2.18,3.42-4.6l4.46-5.3c.74-.79,2.44-1.98,5.09-3.56l3.97-2.86c.46-.88.65-2.97.56-6.27-.09-3.76-.65-6.39-1.67-7.88-.98-1.44-2.84-1.93-5.58-1.46l-.34.1c1.06.42,2.06,1.11,2.99,2.06,1.86,1.86,2.53,4.18,2.02,6.97-.23,1.35-.79,2.6-1.67,3.76l-2.72,2.3c-1.21.65-3.86,1.37-7.95,2.16l-7.11.56c-.51-.46.05-2.77,1.67-6.9,1.67-4.28,3.3-7.3,4.88-9.06.87-.92,1.84-1.57,2.92-1.95l-1.74-1.32c-2.18-2-3.42-3.86-3.7-5.58-.14-.74.21-2.32,1.05-4.74.79-2.37,1.53-4.07,2.23-5.09.72-1.1.86-2.62.43-4.55-.33,1.14-.86,2.2-1.62,3.16-1.77,2.51-4.3,5.02-7.6,7.53-3.49,2.7-5.88,3.79-7.18,3.28-1.44-.56-2.45-3-3.06-7.34-.51.91-1.09,1.91-1.75,3.02-2.74,4.69-4.42,7.2-5.02,7.53l-3.49.35-1.21-.2c.13.4.24.79.3,1.17.46,2.79.3,5.32-.49,7.6-.88,2.32-1.72,3.7-2.51,4.11s-1.86.02-3.21-1.19c-.2-.18-.42-.36-.65-.54-.18-.11-.36-.23-.53-.37-.05-.04-.09-.07-.13-.11-1.31-.89-3.05-1.81-5.24-2.75l-3.76-.49c-1.86-.28-3.16-1.77-3.9-4.46-.14-.53-.23-1.06-.3-1.59-.75,2.09-.21,4.41,1.62,6.96.84,1.16,2.58,2.65,5.23,4.46l3.9,2.93.28,1.53-.07,3.63c0,2.09.4,3.56,1.19,4.39l2.3,1.19c.98.42,2.97,2.09,6,5.02l.63,2.72c.28,2.32.21,4.74-.21,7.25l-1.74,8.02-.98,3.63-.56,1.25c-1.39,2.23-2.95,3.9-4.67,5.02l-3.07,1.74c-1.44.84-2.35,1.37-2.72,1.6-.6.46-.91.93-.91,1.39-.14,2.23.21,4.42,1.05,6.55l.77,2.44c-.37.14-1.09-1.07-2.16-3.63-1.07-2.6-1.58-4.53-1.53-5.79.05-1.12.44-1.98,1.19-2.58l2.86-1.67,3.49-2.44c1.63-1.02,2.63-2.18,3-3.49-5.11.42-9.69-.81-13.73-3.7-1.86-1.35-4.32-3.58-7.39-6.69l-6.14-6.62c-1.16-1.25-2.84-2.56-5.02-3.9l-2.93-1.67c.28-3.3,0-6.37-.84-9.2-.7-2.28-1.77-4.07-3.21-5.37-1.58-1.49-4.09-2.86-7.53-4.11-2.93-1.02-7.92-.21-14.99,2.44l-8.94,3.99-.05-.08c-1.58.74-2.49.74-2.72,0-.14-.46-.12-.86.07-1.19l.91-.98c.51-.42,2.58-1.63,6.2-3.63,3.05-1.63,6.53-2.87,10.4-3.74-3.02-6.17-5.84-13.64-8.45-22.47-1.73-5.82-3.05-11.09-4-15.82l-1.37-8.79-.21-2.37c-.18-2.63-.3-5.93-.38-9.87-.85.2-1.68.32-2.47.32-2.32,0-5.14-.79-8.44-2.37-2.74-1.35-4.79-2.65-6.14-3.9l-4.6-5.3-6.83-8.44-14.85-16.52c-1.07-1.11-2.26-1.85-3.55-2.27.09.31.18.61.27.92.22.81.43,1.63.64,2.48.02.09.04.18.07.26,1.5,6.14,2.75,13.39,3.76,21.75.14,1.16.26,2.29.38,3.4.14,1.38.27,2.77.39,4.2,0,.01.02.03.02.04.62,7.12.78,13.01.47,17.67-2.37,31.74-9.46,57.05-21.26,75.92-5.16,8.32-9.57,16.59-13.25,24.82,11.48-17.71,25.01-25.98,40.58-24.82,8.92.65,17.52,5.04,25.8,13.18,6.46,6.37,12.13,14.32,17.01,23.84,4.46,8.69,8.2,19.08,11.22,31.16,2.84,11.34,4.55,22.08,5.16,32.21.03.51.07,1.01.1,1.52,2.28-3.27,4.77-6.19,7.46-8.77l-4.49,6.56c-4.6,8.18-7.04,16.15-7.32,23.91-.23,6.6.02,11.92.77,15.97,1.39,7.62,4.49,14.39,9.27,20.29,4.65,5.72,8.99,9.95,13.04,12.69,2,1.35,3.53,2.14,4.6,2.37v.07l3.42.98,5.86.98,3.21.56-3.28.49-6.34-.28-2.79-.56c.09,3.58,0,5.62-.28,6.14-3.49,5.44-5.72,10.85-6.69,16.24-.56,2.93-.77,5.72-.63,8.37.1,1.87,1.41,3.43,3.93,4.67.05-1.25.43-2.83,1.16-4.74,0,0,0-.01,0-.02,1.11-2.83,2.11-4.82,2.99-5.98.6-.84,1.44-1.7,2.51-2.58,1.58-1.3,3.02-1.95,4.32-1.95,1.07,0,1.98.42,2.72,1.25l.63.77c4.93,5.76,7.62,9.48,8.09,11.15.09.31.16.63.22.96.26,1.4.23,3.01-.06,4.82,1.67.05,3.35.08,5.07.09-.21-1.06-.06-2.51.46-4.38.19-.7.43-1.45.73-2.26,1.21-3.16,2.56-5.55,4.04-7.18,1.3-1.44,2.72-2.56,4.25-3.35,1.49-.79,2.84-1.16,4.04-1.12,1.12.09,2,.53,2.65,1.32l.21.35c3.2,4.02,5.49,7.55,6.87,10.6.66,1.46,1.11,2.8,1.35,4.04.95-.24,1.85-.51,2.69-.79-.24-.36-.42-.77-.52-1.29-.12-.72-.05-1.59.21-2.61.26-1.02.7-2.2,1.33-3.53,1.25-2.65,2.67-4.67,4.25-6.07l3.76-2.93c1.21-.7,2.3-1,3.28-.91.65.09,1.24.35,1.78.74-.01-.04-.02-.08-.04-.11-.19-.51-.86-1.09-2.02-1.74Zm-13.8-221.77l-2.44,1.39-3.7,2.09c-1.25.98-2.63,2.63-4.11,4.95-1.72,2.79-2.46,5.04-2.23,6.76.42,3.02,2.16,5.88,5.23,8.58l4.32,3.28c-.23.6-1.95-.4-5.16-3-3.49-2.84-5.48-5.97-6-9.41-.33-2.18.74-4.79,3.21-7.81,1.21-1.49,2.46-2.77,3.76-3.83.79-.6,2.16-1.3,4.11-2.09.34-.14.64-.26.92-.37.36-.14.68-.26.95-.35.69-.23,1.07-.3,1.13-.19Zm-35.9,207.2l-5.44.49-3.9-.84c-1.35-.46-1.98-.81-1.88-1.05l1.74.21,3.56.49,5.72-.14c2.51-.14,3.76-.14,3.76,0l-3.56.84ZM153.45,34.08l6.55,7.74,7.32,9.27c9.25,14.78,13.87,25.87,13.87,33.26,0,3.39-.3,6.58-.91,9.55l-1.6,6-1.39,6.07c-.46,2.51-.7,4.32-.7,5.44,0,1.35.33,2.95.98,4.81.7,2.14,1.7,4.14,3,6,2.97,4.37,4.83,6.88,5.58,7.53l1.32.21c.79,0,1.39.14,1.81.42l4.95,3.9c3.02,2.7,5.58,5.32,7.67,7.88l9.55,10.95c3.39,3.95,5.46,6.62,6.2,8.02.7,1.16,2.58,2.74,5.65,4.74,3.86,2.51,7.32,3.76,10.39,3.76,1.58,0,3.09-.3,4.53-.91l2.65-1.32c2.28-1.02,4.62-1.56,7.04-1.6,4.79-.23,7.83-.81,9.13-1.74.84-.6,1.53-1.74,2.09-3.42-1.72,1.67-3.37,2.65-4.95,2.93-2.14.46-4.9-.12-8.3-1.74l-3.49-1.19-4.11-.56-4.88.98c-2.42.46-4.42.44-6-.07-1.72-.56-3.07-1.35-4.04-2.37l-2.37-3.42c-1.06-1.63-2.38-3.41-3.94-5.31l.1.15,3.35,4.46.84,1.25c-1.07,1.35-2.23,2.02-3.49,2.02-.84,0-1.46-1-1.88-3-.39-1.84-.53-4.08-.43-6.7-.68-.79-1.39-1.6-2.15-2.43-5.9-6.37-9.76-10.27-11.57-11.71-.74-.6-2.28-1.3-4.6-2.09l-4.32-1.67c-.74-.46-1.3-1.3-1.67-2.51-.23-.79-.49-2.14-.77-4.04-.19-1.35-.16-2.56.07-3.63.19-.88.42-1.32.7-1.32.42.09.65.74.7,1.95.51,4.18,1.02,6.72,1.53,7.6.33.56,1.49,1.14,3.49,1.74,2.37.74,4.02,1.46,4.95,2.16l7.32,6.2c3.53,3.3,6.18,6.04,7.95,8.23,2.51,3.16,4.86,6.53,7.04,10.11l2.58,1.74c1.35.56,2.86.84,4.53.84l3.56-.49,3.7-.49,4.11.49,3.97,1.05c3.53,1.53,5.62,2.3,6.27,2.3,1.35,0,3.11-1.14,5.3-3.42,2.65-2.74,5.32-6.55,8.02-11.43,1.53-2.79,2.81-5.51,3.83-8.16,1.16-2.97,1.74-5.21,1.74-6.69,0-1.21-.49-2.11-1.46-2.72l-3.14-2.3c-1.02-1.21-2.21-3.42-3.56-6.62-1.21-2.79-2.09-5.23-2.65-7.32-.79-2.88-1.77-5.9-2.93-9.06-.93,2.74-2,4.83-3.21,6.27l-2.02,1.81c-.79.56-1.19,1.14-1.19,1.74l-.35.7-.63-.14c-.42-.84-.63-1.86-.63-3.07l.63-4.53c.46-2.56.91-4.3,1.32-5.23l4.81-12.41c1.21-3.63,1.81-6.74,1.81-9.34,0-1.77-.35-3.39-1.05-4.88-.56-1.12-1.49-2.49-2.79-4.11-1.25-1.53-2.72-3.76-4.39-6.69-1.91-3.3-3.46-6.46-4.67-9.48-2.6-6.65-4.83-15.45-6.69-26.42-1.67-9.39-2.79-14.97-3.35-16.73-1.77-5.67-4.3-8.51-7.6-8.51-2.18,0-3.74,1.25-4.67,3.76-.7,1.95-.93,4.16-.7,6.62l.91,11.29.56,14.01c-.09,4.83-.77,8.39-2.02,10.67-.93,1.63-2.65,3.21-5.16,4.74-2,1.21-4.39,2.07-7.18,2.58l-6.41.42,2.72,1.19,3.28,1.74,2.58,2.02,3.35,2.86c1.07,1.21,1.6,1.98,1.6,2.3-.05.37-.81.02-2.3-1.05l-2.86-1.88-2.23-1.67c-1.21-1.21-2.46-1.98-3.76-2.3-.88-.14-2.05-.6-3.49-1.39-1.72-.88-3.28-1.95-4.67-3.21-6.14-5.07-11.64-9.92-16.52-14.57l-16.17-15.55c-1.3-1.21-3.25-1.93-5.86-2.16-2.6-.28-4.49.09-5.65,1.12-1.07.93-1.53,2.49-1.39,4.67.14,1.95.6,3.46,1.39,4.53Zm108.69,111.62c.33-.65,1.16-1.91,2.51-3.76.33-.56.91-1.14,1.74-1.74.84-.65,1.3-.91,1.39-.77.23.28.09.74-.42,1.39l-1.25,1.39-2.37,3.63c-.37.65-.79.93-1.25.84-.51-.14-.63-.46-.35-.98Zm-18.34,6.14l-.84.14-3.07-.84-2.44.7c-1.02.14-1.72-.05-2.09-.56-.19-.28.16-.74,1.05-1.39.88-.6,1.6-.93,2.16-.98.51-.05,1.39.23,2.65.84l2.3,1.32c.33.28.42.53.28.77Zm3.56-47.83l.77-3.14c.33-2.51.63-3.79.91-3.83l.35,1.12.07,1.95-.42,3.35c0,2.23-.37,3.28-1.12,3.14-.46-.09-.7-.44-.7-1.05l.14-1.53Zm-8.78,35.9c1.21,0,2.63.3,4.25.91l3.28,1.25,2.79.35,2.44-.07,1.32-.35.77.14c.14.37-.23.72-1.12,1.05l-3.35.56c-2.14,0-4.32-.56-6.55-1.67-.56-.28-1.51-.49-2.86-.63l-2.65-.07c-.56.09-2.11,1.42-4.67,3.97-.93.93-1.63,1.07-2.09.42-.33-.42.12-1.12,1.32-2.09l2.93-2.16c1.63-1.07,3.02-1.6,4.18-1.6Zm-7.67-44.06l1.19.56.91,2.51.91,1.25.49,1.12-.56,1.32c-.42.37-.77.51-1.05.42-.33-.14-.49-1-.49-2.58l-.63-1.6-.91-1.6-.21-.77c0-.33.12-.53.35-.63Zm-4.74,22.38l.91-1.19.91-1.39,1.74-4.18,1.67-4.39c.7-2.37,1.16-3.46,1.39-3.28.42.19.28,1.63-.42,4.32l-3.21,9.13-1.81,2.44c-1.02,1.02-1.67,1.44-1.95,1.25-.46-.33-.21-1.23.77-2.72Zm-30.47-25.38c.19-.23,1.63.42,4.32,1.95,3.11,1.77,6.37,3.9,9.76,6.41l6.97,5.79,1.67,1.46c.74.65,1.21,1.23,1.39,1.74l3.63,7.6.49,1.25c.09.46-.07.77-.49.91l-.56-.42-.35-.91c-.09-.23-.44-.46-1.05-.7l-1.74-.35c-1.44,0-4.3-.46-8.58-1.39l-10.88-2.65c-1.02-.42-1.86-1.16-2.51-2.23-.74-1.16-1.12-2.53-1.12-4.11,0-1.3.14-3.14.42-5.51l.35-3.7.14-1.46-.14-1.25c-1.3-1.39-1.88-2.21-1.74-2.44Z"/>
      <path class="cls-7" d="m155.54,228.03c-.79-.51-1.67-2.65-2.65-6.41l-4.46-18.34-3.28-12.62-1.67-5.58c-2.56-8.74-4.65-13.83-6.27-15.27-12.64-11.02-19.45-17.8-20.43-20.36l-3.83-11.43c-5.39-16.96-8.34-25.93-8.85-26.91-.79-1.25-3.3-2.44-7.53-3.56-4.18-1.07-7.44-1.44-9.76-1.12-1.72.74-7.67,5.44-17.85,14.08-10.5,8.83-16.87,14.64-19.1,17.43-5.25,6.65-12.25,22.31-20.99,46.99-6.55,18.59-10.83,31.95-12.83,40.09-.6,2.28-1.16,12.8-1.67,31.58,3.44-3.75,6.86-7.18,10.26-10.29,4.48-4.06,9.14-7.75,14-11.05,6.63-4.5,13.17-7.93,19.62-10.3,1.15-2.31,2.92-3.97,5.34-4.96,1.86-.74,4.51-1.07,7.95-.98l5.37.63c.51.21,1.13.67,1.85,1.34.24,0,.49-.02.73-.02,5.98,0,11.36,1.2,16.14,3.56.86-.54,1.57-.91,2.12-1.12,1.49-.56,3.16-.58,5.02-.07,2.56.65,4.74,3.09,6.55,7.32,1.58,3.76,2.14,6.74,1.67,8.92-.19.98-.81,2.58-1.88,4.81l-1.79,3.51c.14.26.29.44.47.53.98.51,2.46.37,4.46-.42l6.41-3c6.88-3.11,13.2-4.14,18.96-3.07,4.5.83,10.12,3.85,16.85,9.05.7-1.67,1.31-2.9,1.83-3.68.11-.16.24-.31.36-.46,1.89-2.47,4.55-4.46,8.01-5.95.76-.33,1.65-.62,2.65-.88-.51-1.03-.91-1.72-1.19-2.05-3.95-4.51-7.48-7.83-10.6-9.97Zm-77.18-54.52c-1.72,13.94-2.37,27.05-1.95,39.32,0,2.7-.23,4.07-.7,4.11-.33,0-.56-.58-.7-1.74l-.14-2.37c-1.63-12.04-1.51-25.24.35-39.6,1.58-12.55,4.39-25.52,8.44-38.9.42-1.39.86-2.02,1.32-1.88.33.05.53.42.63,1.12v1.53c-3.21,12.5-5.62,25.31-7.25,38.41Zm10.95-23.84c-1.53,13.8-1.84,26.56-.91,38.28v2.58c-.09,1.3-.3,1.95-.63,1.95s-.65-.65-.98-1.95l-.42-2.51c-1.44-12.08-1.39-25.56.14-40.44.81-8.01,1.85-14.56,3.12-19.68,1.06-4.27,2.27-7.55,3.64-9.81l.91-1.39c.42-.6.77-.86,1.05-.77.33.09.49.56.49,1.39l-.28,1.81c-.73,2.02-1.41,4.24-2.05,6.66-1.71,6.5-3.07,14.46-4.09,23.87Zm209.74,98.37c-2.13,1.46-3.65,2.62-4.56,3.48-.89.89-3.18,4.7-6.87,11.4l-5.32-6-.22-.25-1.19-1.32c-.84-.88-2.02-1.77-3.56-2.65l-3.56-1.95c0-.18-.01-.35-.01-.53,1-2.44,1.64-3.98,1.9-4.56,4.46-9.95,8.06-15.38,10.81-16.31.65-.23,1.54-.5,2.61-.79.29,1.19.78,2.32,1.5,3.37,1.12,1.67,3.3,3.86,6.55,6.55l1.19,1.05-.04,1.93-.03,1.42c-.1,2.12.18,3.84.79,5.16Zm22.35-46.57l1.36-1c-.29.85-.49,1.76-.59,2.75l-.28,1.53c-.28.93-1.39,3.09-3.35,6.48l-4.39,7.11-4.81-.63c-.06-.01-.17-.08-.32-.19-.43-.55-.91-1.11-1.45-1.68l1.07-2.46c1.53-3.3,2.93-5.48,4.18-6.55l3.56-2.23,5.02-3.14Zm166.28,14.36c-4.46-16.55-14.2-37.42-29.21-62.61-13.2-22.17-23.84-37.32-31.93-45.46-1.77-1.77-10.62-5.37-26.56-10.81-14.59-5.02-23.05-7.72-25.38-8.09-2.46-.23-5.11.21-7.95,1.32-3.11,1.16-5.3,2.72-6.55,4.67-.51.84-1.88,5.39-4.11,13.66l-7.46,28.44c-1.21,4.6-2.35,10.43-3.42,17.5l-2.37,16.59-1.67,10.53-1.25,4.95c-.5,1.04-2.13,2.67-4.88,4.88.75.17,1.51.42,2.3.76.88.38,1.65.89,2.33,1.49,1.98,1.35,3.63,3.33,4.95,5.92.26.51.51,1.03.74,1.59,1.72,4.14,1.72,7.51,0,10.11l-1.95,3.69c-.79,1.63-1.23,2.72-1.32,3.28.14.56.74,1.51,1.81,2.86l2.51,2.93,6.34-1.19c2.6-.19,4.49.6,5.65,2.37.3.47.58,1.44.84,2.93.62.2,1.25.4,1.88.63l9.69,3.9c3.11,1.25,5.21,1.77,6.27,1.53,1.77-.33,4.95-3,9.55-8.02,4.97-5.48,8.23-8.6,9.76-9.34,3.53-1.77,8.83-2.88,15.9-3.35,8.88-.6,16.45.44,22.73,3.14,5.16,2.23,14.92,9.57,29.28,22.03,5.34,4.64,10.83,9.54,16.45,14.68v.03s11.37,10.53,11.37,10.53l-4.32-48.11Zm-96-27.61c-.19,1.07-.49,1.63-.91,1.67-.84.09-1.42-1.72-1.74-5.44-1.53-15.43-4.6-31-9.2-46.71-3.13-10.71-6.43-19.7-9.9-27-1.28-2.68-2.58-5.14-3.9-7.37-1.07-1.77-1.39-2.74-.98-2.93.33-.14.81.07,1.46.63l1.25,1.32c1.79,2.38,3.55,5.32,5.29,8.82,3.07,6.2,6.05,14.16,8.94,23.88,4.69,15.71,7.95,32.09,9.76,49.15.19,1.49.16,2.81-.07,3.97Zm9.41,15.2l-.28,3.49c-.23,1.95-.51,2.93-.84,2.93-.28,0-.58-.86-.91-2.58l-.42-3.21c1.12-35.51-3.11-64.26-12.69-86.24-.53-1.19-.89-2.15-1.09-2.9-.3-1.1-.27-1.75.12-1.91.33-.14,1.02.51,2.09,1.95l.58.88,1.16,1.77c10.88,30.03,14.97,58.63,12.27,85.82Zm-146.62-103.94c.22,1,.35,2.04.35,3.13,0,1.9-.36,3.69-1.06,5.37-.02.05-.03.09-.05.14-.37.88-.81,1.67-1.32,2.39-.16.09-.33.18-.49.26.02-.74.08-1.47.16-2.2.26,0,.49-.06.7-.18.44-.25.77-.75.96-1.53.17-.66.1-1.25-.17-1.78l.52-.38.28-1.25-.28-1.46-.39-.36c.25-.72.52-1.43.81-2.14Zm-34.76,14.13l1.02,2.25c.05.33-.12.51-.49.56l-2.02-.21-7.81-1.57c-.57-.96-1.05-1.95-1.44-2.96-.85-2.2-1.28-4.52-1.28-6.97l.27-2.89,1.82,1.29c.7.52,1.59,1.21,2.65,2.05-.22-.11-.46-.17-.7-.17-.6,0-1.14.26-1.6.77-.42.46-.63,1.05-.63,1.74,0,.6.19,1.14.56,1.6.42.51.98.77,1.67.77.07,0,.14-.01.21-.02-.09.29-.14.6-.14.93,0,.74.23,1.39.7,1.95.51.56,1.16.84,1.95.84l1.6-.91.49-1.81c0-.74-.23-1.39-.7-1.95-.46-.56-1-.84-1.6-.84-.19,0-.37.03-.55.07l.2-.49c0-.7-.21-1.3-.63-1.81-.01-.01-.02-.02-.03-.03,1.03.82,2.2,1.75,3.52,2.82.79.65,1.32,1.32,1.6,2.02l1.35,2.98Z"/>
      <path class="cls-3" d="m93.77,242.67c-3.3,1.67-5.14,2.32-5.51,1.95-.42-.42-.44-2.21-.07-5.37.42-3.21.98-5.46,1.67-6.76.79-1.35,1.91-2.37,3.35-3.07,1.49-.74,2.86-.88,4.11-.42,1.35.46,2.28,1.39,2.79,2.79.33.88.44,1.84.35,2.86l-.35,2.65-.84,1.95c-.51.65-2.35,1.79-5.51,3.42Zm15.11,199.2c1.1-.71,2.28-1.44,3.56-2.2l.23-1.93v-2.86c-.19-1.86-.58-3.04-1.19-3.56-.84-.56-2.9-.21-6.2,1.05-3.25,1.21-6.02,2.65-8.3,4.32-3.49,2.6-5.6,4.93-6.34,6.97l2.23-.77c1.86-.6,3.53-.93,5.02-.98l11-.05Zm15.64,10.25c.06-1.68-.04-3.28-.35-4.78-.12-.58-.25-1.16-.43-1.71-.51-1.77-1.53-3.42-3.07-4.95-1.3-1.25-2.25-1.88-2.86-1.88l-.35.21c-6.69,3.76-11.46,6.9-14.29,9.41-3.11,2.74-5.11,5.62-6,8.64l-.14.77.77-.07c.13-.05.25-.1.38-.16,3.6-1.48,6.13-2.34,7.57-2.56l17.23-1.35c.54-.55,1.05-1.07,1.53-1.56Zm15.5.68c-.86-1.2-2.35-2.36-4.5-3.48-1.95-1.02-3.3-1.49-4.04-1.39l-10.32,10.39c-2.14,2.18-3.3,4.28-3.49,6.27-.09.79.3,1.02,1.19.7l.52-.2,9.24-3.5,7.95-2.44,4.81-1.81c.46-1.12.05-2.58-1.25-4.39-.03-.05-.07-.1-.11-.14Zm199.78-250.35c.23-2.09-.02-3.86-.77-5.3-.74-1.35-1.77-2.28-3.07-2.79l-6.07.21c-1.35.93-2.58,2.63-3.7,5.09-.93,1.95-1.25,5.28-.98,9.97.28,4.6.79,6.86,1.53,6.76h.07c.93-.23,3.09-1.93,6.48-5.09l5.58-5.51c.42-.65.72-1.77.91-3.35Zm3.35,38.21l6.14-2.16c.65-.37,1.28-1.19,1.88-2.44.74-1.53,1.02-3,.84-4.39-.14-1.02-.6-1.93-1.39-2.72-1.35-1.39-2.79-1.98-4.32-1.74-1.07.14-2,.63-2.79,1.46-.6.7-1.98,3.07-4.11,7.11-2.23,4.23-3.14,6.37-2.72,6.41.84.09,3-.42,6.48-1.53Zm-278.45,23.7l-1.53-2.58c-.14-.56-.44-1.07-.91-1.53-.84-1.02-1.98-1.39-3.42-1.12-1.39.23-2.44.67-3.14,1.32l-1.12,1.74-.14.35c-.33.7-.44,1.56-.35,2.58.14,1.12.51,2.11,1.12,3,.93,1.35,2.16,2.25,3.7,2.72l4.88.56,5.65-.63c.7-.28,1.12-.58,1.25-.91-1.67-.51-2.88-1.19-3.63-2.02l-2.37-3.49Zm5.09-35.9c-1.07-1.25-2.72-1.91-4.95-1.95-2,0-3.3.37-3.9,1.12-.93,1.21-1.77,2.65-2.51,4.32-.98,2.23-1.46,4.28-1.46,6.14,0,3.16.91,5.65,2.72,7.46.93.88,1.84,1.46,2.72,1.74v-.35c.19-2.7.6-4.58,1.25-5.65.98-1.44,3.14-3.42,6.48-5.93.46-.37.79-1.12.98-2.23.23-1.35.02-2.6-.63-3.76l-.7-.91Zm143.44-122.67c-.28-.22-.55-.43-.8-.63-.22-.11-.46-.17-.7-.17-.6,0-1.14.26-1.6.77-.42.46-.63,1.05-.63,1.74,0,.6.19,1.14.56,1.6.42.51.98.77,1.67.77.07,0,.14-.01.21-.02.47-.05.92-.27,1.32-.67l.43-1.04.2-.49c0-.7-.21-1.3-.63-1.81-.01-.01-.02-.02-.03-.03Zm-6.65-4.94l-5.1-3.6c-1.16-.7-1.88-.3-2.16,1.19l-.7,6.34c-.19,2.79-.16,4.67.07,5.65.23.93,1.88,1.81,4.95,2.65l4.91,1.16c-1.55-2.87-2.33-6.04-2.33-9.52,0-1.1.12-2.4.36-3.86Zm11.57,54.83l.98-.07.24-.2,1.15-.92-3.35-4.46c-.19,3.39.14,5.28.98,5.65Zm88.47,62.96l-2.37-2.65c-.46-.56-1.44-.95-2.93-1.19-1.95-.23-3.63.28-5.02,1.53-1.44,1.21-2.25,2.84-2.44,4.88-.09,1.25.09,2.44.56,3.56.46,1.02.98,1.58,1.53,1.67l2.16.21,2.02.42c2.14.93,4.58,2.7,7.32,5.3l.23.23.25.25.15-.3.89-1.72c.56-1.95.58-4.51.07-7.67-.23-1.3-1.05-2.81-2.44-4.53Zm47.41,251.47l-3.35-6.27-3-4.6c-.23-.33-.51-.49-.84-.49-.79-.09-2.49.98-5.09,3.21-1.3,1.16-2.51,2.88-3.63,5.16-.17.37-.33.72-.47,1.05-.68,1.63-.97,2.81-.86,3.55l.28.42,1.67.63,10.46,4.18c1.16.65,3.04,2.3,5.65,4.95.07-.11.13-.25.19-.38.31-.66.53-1.62.64-2.9.28-2.65-.28-5.48-1.67-8.51Zm-32.42-9.27l-.7-.28c-.7-.05-1.56.21-2.58.77-1.3.65-2.53,1.6-3.7,2.86-1.25,1.35-2.39,3.44-3.42,6.27-.14.37-.26.71-.38,1.05-.74,2.12-1.01,3.59-.81,4.39l.28.35c.7.23,2.81,1.44,6.34,3.63,3.72,2.23,6.02,3.76,6.9,4.6l3.13,3.9.28.35c.51-.42.98-1.23,1.39-2.44.93-2.46,1.39-5.79,1.39-9.97,0-3.44-2.63-8.46-7.88-15.06l-.28-.42ZM253.66,101.63c-.12.35-.26.7-.37,1.05-.23.7-.42,1.42-.59,2.14l.59.44.25-.18.52-.38.28-1.25-.28-1.46-.39-.36Zm3.46-7.8c-.71,1.31-1.35,2.63-1.94,3.96.45,1.53.68,3.06.68,4.62,0,2.28-.4,4.3-1.16,6.09.46-.56.89-1.19,1.3-1.91.93-1.67,1.42-3,1.46-3.97.23-2.46.21-4.79-.07-6.97l-.28-1.81Zm35.14,367.06l-.63-.77c-.23-.23-.49-.35-.77-.35-.65,0-1.44.37-2.37,1.12-.93.7-1.74,1.51-2.44,2.44-.74.88-1.6,2.6-2.58,5.16-.19.5-.34.95-.49,1.37-.62,1.89-.79,3.09-.49,3.58l4.11,3.83,4.67,4.6c.94,1.02,2.22,2.8,3.83,5.32.07.11.14.21.21.32,1.49-2.51,2.7-5.14,3.63-7.88,1.21-3.67,1.51-6.51.91-8.51-.37-1.3-2.9-4.72-7.6-10.25Z"/>
      <path class="cls-1" d="m500.85,214.65c-2.37-15.52-4.35-25.31-5.93-29.35l-8.37-10.81c-6.14-7.72-11.29-15.18-15.48-22.38l-20.36-35.9c-9.76-16.87-16.27-26.84-19.52-29.91-.56-.56-1.91-1.02-4.04-1.39l-5.58-.77c-4.74-.56-9.39-1.56-13.94-3l-15.48-7.67c-9.48-4.88-14.9-7.53-16.24-7.95l-5.72-1.19c-2.88-.56-4.51-1-4.88-1.32l-10.88-10.53-11.36-10.95c-1.77-1.63-3.7-2.93-5.79-3.9-2.46-1.16-4.72-1.58-6.76-1.25-1.86.33-3.42,1.39-4.67,3.21-1.67,2.42-2.14,5.25-1.39,8.51.6,2.7,1.88,5.25,3.83,7.67,4.88,6.14,8.76,11.48,11.64,16.04,2.65,4.14,4.02,6.9,4.11,8.3.14,2.56-.46,8.41-1.81,17.57-1.49,10.04-3.35,20.06-5.58,30.05-2.42,10.78-5,21.24-7.74,31.37-2.6,9.57-4.49,15.73-5.65,18.48-6.55,8.23-14.45,15.87-23.7,22.94l-16.94,12.27-11.15,7.39-6.48-.14c-2.23.37-3.74.84-4.53,1.39-1.27.97-2.78,3.9-4.51,8.74-.5.03-1.02.07-1.55.14-3.31-6.42-6.43-14.14-9.34-23.17-3.07-9.57-4.93-17.29-5.58-23.15-.29-2.75-.43-7.24-.42-13.46.05-.02.09-.04.14-.06,2.51-1.21,4.44-1.91,5.79-2.09l7.74-.91c2.97-.51,4.97-1.35,6-2.51,1.95-2.37,3.02-4.76,3.21-7.18,3.16-3.72,5.97-8.2,8.44-13.46,2.51-5.25,3.76-9.3,3.76-12.13,0-1.39-.65-2.6-1.95-3.63l-2.86-2.02c-.65-.56-1.49-1.79-2.51-3.7l-2.51-5.79-5.3-14.99c.19-3.07.12-6.02-.21-8.85l-.49-3.35,1.32-4.74.84-3.7c.09-1.35-.05-2.9-.42-4.67-.33-1.58-1.53-4.3-3.63-8.16l-5.09-9.34c-2.93-5.67-5.07-10.95-6.41-15.83l-3.76-17.22-3.76-17.64c-.56-2.42-1.74-4.49-3.56-6.2-1.95-1.81-4.04-2.58-6.27-2.3-2.23.33-4.07,1.67-5.51,4.04-1.3,2.14-1.91,4.28-1.81,6.41l1.12,14.78.28,8.3-.07,9.48c0,3.25-.91,5.86-2.72,7.81-1.16,1.21-2.95,2.32-5.37,3.35-1.67.74-3.97,1.19-6.9,1.32-2.84.09-4.86-.14-6.07-.7-1.91-.84-5.18-3.32-9.83-7.46l-11.71-11.64-12.55-12.48c-2.23-2.14-5.11-3.14-8.64-3-3.02.09-5.28.77-6.76,2.02-1.63,1.3-2.53,3.35-2.72,6.14-.23,3.07.56,5.74,2.37,8.02l8.16,8.92c4.6,5.07,7.79,9.16,9.55,12.27,2.37,4.18,4.53,8.83,6.48,13.94,2.23,5.76,3.35,9.99,3.35,12.69,0,4-.77,9.27-2.3,15.83-1.72,6.97-2.58,11.2-2.58,12.69,0,1.07.58,2.79,1.74,5.16l2.93,5.37,3.76,4.88,3.76,4.32.54.11,1.96,8.75c3.11,16.59,4.3,30.14,3.56,40.65-1.23,16.3-3.62,30.8-7.16,43.54l-1.83.1-3.07,1.25c-4.46-4.55-8.39-9.32-11.78-14.29-2.51-3.76-4.39-6.76-5.65-8.99-1.72-3.11-3.16-6.34-4.32-9.69-.84-2.46-1.91-7.95-3.21-16.45-.6-4.83-1.63-8.3-3.07-10.39l-9.55-10.81-10.32-11.64c-1.91-2.32-4.18-6.97-6.83-13.94-2.6-6.74-4.28-12.25-5.02-16.52-1.21-6.55-1.81-12.85-1.81-18.89,0-5.39.42-8.67,1.25-9.83l20.29-22.45c1.81-2,2.79-4.25,2.93-6.76.09-2.23-.46-4.04-1.67-5.44-1.63-1.86-4.09-2.53-7.39-2.02-3.16.51-6.48,2.02-9.97,4.53l-17.85,13.59-17.29,13.39c-.42.33-1.58.93-3.49,1.81l-4.46,2.02c-4.97,2.23-8.6,4.28-10.88,6.14-2.74,2.23-9.57,9.69-20.5,22.38-11.06,12.87-17.38,20.73-18.96,23.56-1.21,2.14-3.79,8.58-7.74,19.31-4.23,11.48-7.3,20.57-9.2,27.26-2.18,7.62-4.62,17.24-7.32,28.86-2.88,12.36-4.74,21.4-5.58,27.12-.19.88-.19,3.49,0,7.81.28,6.41.91,15.15,1.88,26.21l.07.42c.23,2.74,1.12,4.83,2.65,6.27,1.21,1.16,2.58,1.74,4.11,1.74,1.63,0,3.02-.91,4.18-2.72,1.12-1.77,1.67-3.81,1.67-6.14l-.42-4.53c-.23-2.84-.23-5.23,0-7.18,6.27-7.58,13.71-14.57,22.31-20.99,7.09-5.32,14.01-9.38,20.77-12.2-.09.37-.15.74-.2,1.09-2.17,3.51-3.28,6.77-3.28,9.78,0,3.57,1,6.45,2.98,8.66-.64.79-1.33,1.66-2.07,2.64-3.25,4.23-4.95,7.27-5.09,9.13-.23,2.74.46,5.04,2.09,6.9l.25.18c.23,1.21.69,2.37,1.42,3.45,1.21,1.72,2.84,2.9,4.88,3.56l5.72.77c5.07.28,8.13-.67,9.2-2.86l.45-.93c1.13,1.28,2.19,2.2,3.17,2.75,2.32,1.35,4.46,1.98,6.41,1.88,1.39-.05,2.95-.56,4.67-1.53,5.44,4.69,10.74,8.6,15.9,11.71,8.32,4.97,15.41,7.25,21.26,6.83,2.56-.23,6.04-1.51,10.46-3.83l4.04-2.44,4.74-2.51,11.15-5.37,5.65-2.83c-7.33,14.09-12.36,27.42-15.06,39.98-.78,3.62-1.34,7.17-1.75,10.68-9.8,8.54-17.08,16.88-21.82,25.02-7.62,13.01-10.76,24.15-9.41,33.39.74,4.93,3.53,10.64,8.37,17.15,1.25,1.67,2.97,3.37,5.16,5.09l4.11,3.07-.7,3.21-3.21,3.9c-2.28,2.37-4.62,4.39-7.04,6.07l-8.64,5.44-1.6.14-.7.14c-1.49.33-3.32,1.02-5.51,2.09-2.6,1.25-5.02,2.72-7.25,4.39-4,3.11-6.39,5.95-7.18,8.51-.02.06-.03.11-.05.18-.36.9-.49,1.75-.37,2.54.02.15.09.27.19.38.34.54,1.11.54,2.32-.03,1.58-.7,3.67-1.07,6.27-1.12l5.44.14c-3.11,2.88-5.39,6.07-6.83,9.55-.74,1.72-1.21,3.32-1.39,4.81-.14.7.02,1.19.49,1.46l1.02-.08h.17s.03,0,.04-.02l1.35-.11,3.07-1.32c1.44-.56,2.95-.98,4.53-1.25l12.69-.63-1.46,2.93c-1.02,2.28-1.65,4.25-1.88,5.93-.23,1.77.14,2.77,1.12,3,.65.14,1.67-.12,3.07-.77l2.72-1.32c1.81-.84,3.95-1.67,6.41-2.51l5.51-1.39,5.16-1.19c3.25,1.02,5.58,1.42,6.97,1.19,1.67-.28,3.09-.81,4.25-1.6l2.3-2.23,5.79-4.11c4-2.65,7-4.37,8.99-5.16,3.11-1.3,7.3-2.51,12.55-3.63,1.39-.42,2.67-1.19,3.83-2.3,1.25-1.21,2.11-2.63,2.58-4.25.37-1.21.19-3.46-.56-6.76-.79-3.53-1.88-6.27-3.28-8.23l4.53-3c2.93-2.18,4.93-3.46,6-3.83.09-.03.2-.05.29-.08,1.97,1.16,3.99,2.24,6.06,3.27,4.09,3.91,8.46,7.62,13.1,11.1,18.97,14.13,39.46,22.55,61.46,25.28-.92,3.57-1.31,7-1.16,10.28.09,1.25.26,2.23.49,2.93.33.98.88,1.81,1.67,2.51l2.23,1.67,3.21,1.12,4.88,4.25,4.18,3.7c.93.98,2.16,2.72,3.7,5.23l1.12,1.6c.84,1.12,1.42,1.7,1.74,1.74.56.05,1.44-1.09,2.65-3.42,2.28-3.9,3.79-7.34,4.53-10.32l4.32-.07,3,1.05,5.65,3.14,5.72,3.76c1.07,1.02,2.05,2.23,2.93,3.63,1.12,1.77,1.84,2.67,2.16,2.72.65.19,1.51-.46,2.58-1.95,1.07-1.44,1.95-3.16,2.65-5.16.6-1.67.95-3.76,1.05-6.27v-3.21l5.16-.28,5.37,1.88,4.46,1.67c.93.46,2.56,1.91,4.88,4.32l.91,1.19,1.53,1.12c.93-.09,1.81-1.07,2.65-2.93.65-1.12,1.07-2.56,1.25-4.32.33-3.3-.33-6.76-1.95-10.39l-4.39-8.02c.08-1.75-.12-3.28-.58-4.6,24.1-6.8,44.75-22.81,61.93-48.1,13.8-20.36,18.24-43.74,13.32-70.14-3.25-17.62-10.34-35.37-21.26-53.26l1.6-1.32,1.46-1.53c.42-2.28.46-4.11.14-5.51l-.07-.42,1.32-.98,2.51-1.46c.84-.56,1.42-1.37,1.74-2.44.51-1.58,1.53-3.51,3.07-5.79,1.81-2.84,3.65-5,5.51-6.48l17.92-14.01,2.65-1.81c1.35-.98,1.98-1.67,1.88-2.09-.05-.23-.91-.23-2.58,0l-3.28.56c-5.48,2.05-9.76,3.81-12.83,5.3l1.12-1.32,1.05-1.39c0-.33-1.93.26-5.79,1.74-3.21,1.07-6.25,3-9.13,5.79-.98.93-2.3,2.6-3.97,5.02-1.16,1.67-1.95,2.35-2.37,2.02-.6-.51-.35-1.39.77-2.65l2.58-2.72,1.95-2.37,1.05-1.46c-.14-.98-.63-1.67-1.46-2.09l-2.16-.49-1.6-.42-1.32-.42c-.42-.93-.46-2.14-.14-3.63.28-1.53.86-2.77,1.74-3.7.6-.51,1.46-.93,2.58-1.25.56-.14,1.58-.14,3.07,0,1.3-.05,2.16-.72,2.58-2.02.33-.88.4-2.09.21-3.63l-.42-2.86c0-.84.28-1.77.84-2.79l1.53-2.09c.6-.7.93-1.35.98-1.95l-.56-2.44-1.39-1.05-1.6-.91c-.69-.78-1.1-1.47-1.25-2.07,6.9.07,12.81,1.14,17.7,3.25,4.74,2.05,14.08,9.25,28.03,21.61,10.27,9.16,20.08,18.34,29.42,27.54.46,1.91.7,4,.7,6.27,0,3.63.37,6.23,1.12,7.81.79,1.67,2.11,2.53,3.97,2.58,4.23.09,6.65-2.72,7.25-8.44l.21-30.47v-1.53c0-4.79-1.14-14.62-3.42-29.49Zm-313.38-84.71l-1.32-.21c-.74-.65-2.6-3.16-5.58-7.53-1.3-1.86-2.3-3.86-3-6-.65-1.86-.98-3.46-.98-4.81,0-1.12.23-2.93.7-5.44l1.39-6.07,1.6-6c.6-2.97.91-6.16.91-9.55,0-7.39-4.62-18.48-13.87-33.26l-7.32-9.27-6.55-7.74c-.79-1.07-1.25-2.58-1.39-4.53-.14-2.18.33-3.74,1.39-4.67,1.16-1.02,3.04-1.39,5.65-1.12,2.6.23,4.55.95,5.86,2.16l16.17,15.55c4.88,4.65,10.39,9.5,16.52,14.57,1.39,1.25,2.95,2.32,4.67,3.21,1.44.79,2.6,1.25,3.49,1.39,1.3.33,2.56,1.09,3.76,2.3l2.23,1.67,2.86,1.88c1.49,1.07,2.25,1.42,2.3,1.05,0-.33-.53-1.09-1.6-2.3l-3.35-2.86-2.58-2.02-3.28-1.74-2.72-1.19,6.41-.42c2.79-.51,5.18-1.37,7.18-2.58,2.51-1.53,4.23-3.11,5.16-4.74,1.25-2.28,1.93-5.83,2.02-10.67l-.56-14.01-.91-11.29c-.23-2.46,0-4.67.7-6.62.93-2.51,2.49-3.76,4.67-3.76,3.3,0,5.83,2.84,7.6,8.51.56,1.77,1.67,7.34,3.35,16.73,1.86,10.97,4.09,19.78,6.69,26.42,1.21,3.02,2.77,6.18,4.67,9.48,1.67,2.93,3.14,5.16,4.39,6.69,1.3,1.63,2.23,3,2.79,4.11.7,1.49,1.05,3.11,1.05,4.88,0,2.6-.6,5.72-1.81,9.34l-4.81,12.41c-.42.93-.86,2.67-1.32,5.23l-.63,4.53c0,1.21.21,2.23.63,3.07l.63.14.35-.7c0-.6.4-1.19,1.19-1.74l2.02-1.81c1.21-1.44,2.28-3.53,3.21-6.27,1.16,3.16,2.14,6.18,2.93,9.06.56,2.09,1.44,4.53,2.65,7.32,1.35,3.21,2.53,5.41,3.56,6.62l3.14,2.3c.98.6,1.46,1.51,1.46,2.72,0,1.49-.58,3.72-1.74,6.69-1.02,2.65-2.3,5.37-3.83,8.16-2.7,4.88-5.37,8.69-8.02,11.43-2.18,2.28-3.95,3.42-5.3,3.42-.65,0-2.74-.77-6.27-2.3l-3.97-1.05-4.11-.49-3.7.49-3.56.49c-1.67,0-3.18-.28-4.53-.84l-2.58-1.74c-2.18-3.58-4.53-6.95-7.04-10.11-1.77-2.18-4.42-4.93-7.95-8.23l-7.32-6.2c-.93-.7-2.58-1.42-4.95-2.16-2-.6-3.16-1.19-3.49-1.74-.51-.88-1.02-3.42-1.53-7.6-.05-1.21-.28-1.86-.7-1.95-.28,0-.51.44-.7,1.32-.23,1.07-.26,2.28-.07,3.63.28,1.91.53,3.25.77,4.04.37,1.21.93,2.05,1.67,2.51l4.32,1.67c2.32.79,3.86,1.49,4.6,2.09,1.81,1.44,5.67,5.35,11.57,11.71.76.83,1.47,1.64,2.15,2.43-.1,2.62.04,4.86.43,6.7.42,2,1.05,3,1.88,3,1.25,0,2.42-.67,3.49-2.02l-.84-1.25c-.37.5-.75.79-1.15.92l-.24.2-.98.07c-.84-.37-1.16-2.25-.98-5.65l-.1-.15c1.56,1.91,2.87,3.68,3.94,5.31l2.37,3.42c.98,1.02,2.32,1.81,4.04,2.37,1.58.51,3.58.53,6,.07l4.88-.98,4.11.56,3.49,1.19c3.39,1.63,6.16,2.21,8.3,1.74,1.58-.28,3.23-1.25,4.95-2.93-.56,1.67-1.25,2.81-2.09,3.42-1.3.93-4.35,1.51-9.13,1.74-2.42.05-4.76.58-7.04,1.6l-2.65,1.32c-1.44.6-2.95.91-4.53.91-3.07,0-6.53-1.25-10.39-3.76-3.07-2-4.95-3.58-5.65-4.74-.74-1.39-2.81-4.07-6.2-8.02l-9.55-10.95c-2.09-2.56-4.65-5.18-7.67-7.88l-4.95-3.9c-.42-.28-1.02-.42-1.81-.42Zm66.06-24.86l-.25.18-.59-.44c.17-.72.37-1.43.59-2.14.12-.35.25-.7.37-1.05.25-.72.52-1.43.81-2.14.22,1,.35,2.04.35,3.13,0,1.9-.36,3.69-1.06,5.37-.02.05-.03.09-.05.14-.37.88-.81,1.67-1.32,2.39-.16.09-.33.18-.49.26.02-.74.08-1.47.16-2.2.26,0,.49-.06.7-.18.44-.25.77-.75.96-1.53.17-.66.1-1.25-.17-1.78Zm2.33-2.68c0-1.55-.23-3.09-.68-4.62.59-1.32,1.23-2.64,1.94-3.96l.28,1.81c.28,2.18.3,4.51.07,6.97-.05.98-.53,2.3-1.46,3.97-.41.72-.84,1.35-1.3,1.91.77-1.79,1.16-3.82,1.16-6.09ZM13.39,223.57c-.74,3.07-1.37,15.22-1.88,36.46l-.63,12.34c0,1.07-.21,2-.63,2.79-.42.74-.88,1.12-1.39,1.12-.65,0-1.12-.19-1.39-.56-.51-.56-.84-1.63-.98-3.21l-.91-14.22-.77-13.59c.05-4.93,1.39-13.73,4.04-26.42,2.32-11.34,4.58-20.64,6.76-27.89,3.25-10.88,7.16-22.52,11.71-34.93,3.81-10.23,6.23-16.27,7.25-18.13,1.44-2.6,7.37-10.06,17.78-22.38,10.46-12.41,16.96-19.64,19.52-21.68,2.14-1.72,6.37-4,12.69-6.83,3.16-1.44,6.11-2.7,8.85-3.76l30.88-25.45c2.56-2.14,5.11-3.6,7.67-4.39,2.65-.79,4.39-.6,5.23.56,1.67,2.42,1.23,5.02-1.32,7.81-11.71,12.46-18.71,20.1-20.98,22.94-1.49,1.91-1.98,6.41-1.46,13.53.33,4.74,1.07,10.25,2.23,16.52.74,4.23,2.63,9.95,5.65,17.15,3.07,7.25,5.72,12.25,7.95,14.99l19.1,22.31c1.3,1.72,2.44,5.53,3.42,11.43,1.21,7.25,2.14,11.81,2.79,13.66,1.21,3.53,2.44,6.67,3.69,9.41l4.67,9.06c1.72,3.21,4.6,7.25,8.64,12.13,3.76,4.51,6.02,6.9,6.76,7.18l2.51-.77c.88-.44,1.63-.65,2.24-.65-.92,2.97-1.91,5.83-2.97,8.59-.08,0-.16,0-.25,0-3.11.06-5.82.25-8.16.55-1.05-1.95-1.87-3.26-2.44-3.9-4.97-5.72-9.06-9.64-12.27-11.78-.88-1.02-3.14-8.64-6.76-22.87l-3.35-12.83-1.67-5.51-2.58-8.16c-1.02-2.46-2.21-4.3-3.56-5.51l-10.74-10.46c-5.21-5.35-8.04-8.64-8.51-9.9l-3.83-11.29c-6.14-18.41-9.48-28.03-10.04-28.86-1.21-2-4.35-3.63-9.41-4.88-4.6-1.12-8.3-1.46-11.09-1.05-1.72.28-8.2,5.35-19.45,15.2-10.88,9.48-17.31,15.5-19.31,18.06-5.72,7.25-12.97,24.03-21.75,50.34-4.42,13.15-8.27,25.73-11.57,37.72Zm25.24,11.71c-4.86,3.3-9.52,6.99-14,11.05-3.4,3.11-6.82,6.53-10.26,10.29.51-18.78,1.07-29.3,1.67-31.58,2-8.13,6.27-21.5,12.83-40.09,8.74-24.68,15.73-40.34,20.99-46.99,2.23-2.79,8.6-8.6,19.1-17.43,10.18-8.64,16.13-13.34,17.85-14.08,2.32-.33,5.58.05,9.76,1.12,4.23,1.12,6.74,2.3,7.53,3.56.51.98,3.46,9.95,8.85,26.91l3.83,11.43c.98,2.56,7.79,9.34,20.43,20.36,1.63,1.44,3.72,6.53,6.27,15.27l1.67,5.58,3.28,12.62,4.46,18.34c.98,3.76,1.86,5.9,2.65,6.41,3.11,2.14,6.65,5.46,10.6,9.97.28.33.67,1.01,1.19,2.05-1,.26-1.89.55-2.65.88-3.46,1.49-6.12,3.47-8.01,5.95-.12.16-.24.31-.36.46-.52.78-1.13,2.01-1.83,3.68-6.73-5.2-12.34-8.22-16.85-9.05-5.76-1.07-12.08-.05-18.96,3.07l-6.41,3c-2,.79-3.49.93-4.46.42-.18-.1-.33-.28-.47-.53l1.79-3.51c1.07-2.23,1.7-3.83,1.88-4.81.46-2.18-.09-5.16-1.67-8.92-1.81-4.23-4-6.67-6.55-7.32-1.86-.51-3.53-.49-5.02.07-.55.21-1.26.58-2.12,1.12-4.78-2.36-10.16-3.56-16.14-3.56-.24,0-.49.01-.73.02-.72-.67-1.34-1.13-1.85-1.34l-5.37-.63c-3.44-.09-6.09.23-7.95.98-2.42,1-4.19,2.66-5.34,4.96-6.45,2.37-12.99,5.8-19.62,10.3Zm114.46,18.38c-3.77,2.19-8.27,4.39-13.51,6.58-3.3,1.39-6.79,2.56-10.46,3.49l-5.44,1.32c-2.84.74-8.92-3.09-18.27-11.5l-.21-1.6.77-1.39.1-.2c1.59.76,3.39.88,5.4.34,1.25-.33,3.28-1.19,6.07-2.58,4.51-2.23,7.3-3.56,8.37-3.97,3.58-1.21,7.06-1.49,10.46-.84,4.25.81,9.83,4.27,16.72,10.36Zm-63.22-21.16c.79-1.35,1.91-2.37,3.35-3.07,1.49-.74,2.86-.88,4.11-.42,1.35.46,2.28,1.39,2.79,2.79.33.88.44,1.84.35,2.86l-.35,2.65-.84,1.95c-.51.65-2.35,1.79-5.51,3.42-3.3,1.67-5.14,2.32-5.51,1.95-.42-.42-.44-2.21-.07-5.37.42-3.21.98-5.46,1.67-6.76Zm-2.51-3.35l-1.53-.42-1.19-.49c-1.64-2.32-3.06-4.16-4.28-5.56,4.78.09,9.17,1.19,13.17,3.29-.32.23-.66.47-1.01.74l-5.16,2.44Zm-28.93,2.79c.74-1.67,1.58-3.11,2.51-4.32.6-.74,1.91-1.12,3.9-1.12,2.23.05,3.88.7,4.95,1.95l.7.91c.65,1.16.86,2.42.63,3.76-.19,1.12-.51,1.86-.98,2.23-3.35,2.51-5.51,4.49-6.48,5.93-.65,1.07-1.07,2.95-1.25,5.65v.35c-.88-.28-1.79-.86-2.72-1.74-1.81-1.81-2.72-4.3-2.72-7.46,0-1.86.49-3.9,1.46-6.14Zm11.02,38.83l-5.65.63-4.88-.56c-1.53-.46-2.77-1.37-3.7-2.72-.6-.88-.98-1.88-1.12-3-.09-1.02.02-1.88.35-2.58l.14-.35,1.12-1.74c.7-.65,1.74-1.09,3.14-1.32,1.44-.28,2.58.09,3.42,1.12.46.46.77.98.91,1.53l1.53,2.58,2.37,3.49c.74.84,1.95,1.51,3.63,2.02-.14.33-.56.63-1.25.91Zm2.51-3.14c-1.35-.37-2.25-.84-2.72-1.39l-.69-1.09.76-1.56,2.74,4.07-.09-.03Zm71.04,11.71c-2.05.88-5.55,2.6-10.53,5.16-3.25,1.72-5.65,2.63-7.18,2.72-5.3.42-11.97-1.81-20.01-6.69-4.93-3.02-9.95-6.74-15.06-11.15-.19-.14.05-.79.7-1.95l1.05-1.74-3.7,2.58c-.65.74-1.58,1.3-2.79,1.67-2.37.79-4.97.4-7.81-1.19-2.42-1.39-4.44-3.39-6.07-6l-1.67-3.49-3.05,3.27-1.41-2.22c-.51-1.21-1.25-2.16-2.23-2.86-1.3-.98-2.84-1.3-4.6-.98-1.77.33-3.14.93-4.11,1.81-.62.53-1.19,1.34-1.72,2.4-.05-.44-.06-.91-.02-1.43.09-1.39.6-2.84,1.53-4.32l3.56-4.53,1.37-1.3c.69.46,1.35.76,1.98.89h.14l2.44-.07.21-.35.49-1.81c.09-2.05.4-3.44.91-4.18.37-.6,1.35-1.7,2.93-3.28l2.93-2.65c1.12-.98,1.79-2.49,2.02-4.53.14-2.37-.53-4.42-2.02-6.14-1.77-2-4.09-2.93-6.97-2.79l-3.14.7c-.05.02-.1.04-.15.06.75-.97,1.94-1.81,3.63-2.5l6.41-.35,4.67.77,2.93,3.35,3.07,4.11c.93,1.3,2.58,2.05,4.95,2.23l1.27-.62c-.71,1.53-1.32,3.8-1.83,6.82-.7,4.04-.51,6.6.56,7.67.6.6,1.37.88,2.3.84,1.25-.05,3.53-.86,6.83-2.44,3.21-1.53,5.16-2.72,5.86-3.56.88-.98,1.46-2.56,1.74-4.74l.28-2.44c0-1.53-.37-2.93-1.12-4.18-.63-1.05-1.46-1.88-2.49-2.48l1.24.11c1.44.37,2.84,2.18,4.18,5.44,1.25,3.07,1.74,5.28,1.46,6.62-.19,1.02-.95,2.88-2.3,5.58l-2.65,5.23c-.65,1.3-.56,3.02.28,5.16l8.85,7.04c6.55,4.55,11.48,6.39,14.78,5.51l6.48-2.23,9.76-3.76,14.36-6.07c.23-1.25.86-2.7,1.88-4.32,2.09-3.25,5.25-5.79,9.48-7.6,2.35-1,5.96-1.6,10.79-1.8-2.29,5.47-4.86,10.51-7.72,15.12-2.52,4.04-4.86,8.02-7.02,11.94-8.66,4.46-15.65,7.79-20.93,9.95Zm-45.11,162.58c-1.49.05-3.16.37-5.02.98l-2.23.77c.74-2.05,2.86-4.37,6.34-6.97,2.28-1.67,5.04-3.11,8.3-4.32,3.3-1.25,5.37-1.6,6.2-1.05.6.51,1,1.7,1.19,3.56v2.86l-.23,1.93c-1.27.76-2.46,1.49-3.56,2.2l-11,.05Zm7.88,13.11c-1.44.22-3.96,1.08-7.57,2.56-.13.05-.25.1-.38.16l-.77.07.14-.77c.88-3.02,2.88-5.9,6-8.64,2.84-2.51,7.6-5.65,14.29-9.41l.35-.21c.6,0,1.56.63,2.86,1.88,1.53,1.53,2.56,3.18,3.07,4.95.17.56.31,1.13.43,1.71.3,1.51.41,3.11.35,4.78-.48.49-.99,1.01-1.53,1.56l-17.23,1.35Zm35.63,2.3l-4.81,1.81-7.95,2.44-9.24,3.5-.52.2c-.88.33-1.28.09-1.19-.7.19-2,1.35-4.09,3.49-6.27l10.32-10.39c.74-.09,2.09.37,4.04,1.39,2.15,1.12,3.64,2.28,4.5,3.48.03.05.07.09.11.14,1.3,1.81,1.72,3.28,1.25,4.39Zm44.34-39.81c-2.51,2.14-4.44,3.53-5.79,4.18l-.07.07s-.02,0-.03-.01c-.79.43-1.98,1.17-3.59,2.24l-2.23,1.53,1.95.28c1.35.19,2.25.42,2.72.7.56.37,1.14,1.58,1.74,3.63l1.25,5.79c.23,1.95.28,3.14.14,3.56-.56,1.44-1.63,2.6-3.21,3.49l-3.9,1.46-8.37,2.58c-.98.19-3.42,1.46-7.32,3.83l-7.18,4.46-2.86,2.44c-1.21,1.02-2.65,1.67-4.32,1.95-.39.06-.94.03-1.63-.09.18-.08.31-.16.37-.26.42-.51.56-1.3.42-2.37-.09-1.05-.46-2.17-1.04-3.35-.29-.59-.63-1.19-1.05-1.81-.93-1.35-2.44-2.63-4.53-3.83-1.95-1.12-3.63-1.77-5.02-1.95-.84-.05-1.44.07-1.81.35-.58.48-1.73,1.59-3.47,3.33-.14-1.34-.46-2.77-1-4.3-.65-1.86-1.74-3.63-3.28-5.3-1.35-1.53-2.58-2.53-3.7-3-.88-.28-1.56-.28-2.02,0l-.42.21c-.68.38-1.33.75-1.97,1.12l.08-.63v-3.14c-.26-2.4-.9-3.99-1.89-4.79l9.98-6.23c2.74-1.91,5.25-4.14,7.53-6.69,1.77-2,2.88-3.56,3.35-4.67l.28-1.95,2.72.84,7.39.56-3.83-.84-3-1.12c-.74-.23-1.7-.7-2.86-1.39l-1.6-1.05c-1.58-1.02-3.86-3.53-6.83-7.53-3.72-4.88-5.97-10.34-6.76-16.38-1.35-9.62,1.05-20.03,7.18-31.23,4.92-8.95,10.84-16.63,17.74-23.06-1.19,15.6,1.38,30.12,7.72,43.56,1.08,2.28,2.25,4.54,3.55,6.76,8.86,15.16,19.98,27.11,33.34,35.87-.87.58-1.83,1.3-2.87,2.2Zm-22.1-32.7l-3.9-6.2c-12.32-21.05-14.71-45.22-7.18-72.51,4.18-11.9,9.5-21.4,15.97-28.51,8.97-9.85,19.52-14.34,31.65-13.46,14.55,1.12,27.47,12.32,38.76,33.6,10.09,19.01,15.78,39.07,17.08,60.17.2,3.25.44,6.37.72,9.37-3.18,5.82-4.89,11.66-5.11,17.54l.56,12.48c.52,3.82,1.36,7.35,2.47,10.61,1.65,4.83,3.93,9.07,6.87,12.67,2.31,2.84,4.66,5.35,7.07,7.57-3.52.66-7.21,1.1-11.11,1.29-17.15.74-32.79-1.53-46.92-6.83-19.24-7.25-34.88-19.85-46.92-37.79Zm64.28,53.15c-6.3-3.52-12.42-7.58-18.38-12.16,14.55,5.35,30.52,7.64,47.93,6.84,5.08-.23,9.84-.83,14.29-1.78,2.71,2.15,5.47,3.94,8.3,5.34l.41,5.27v.16c-2.53,4.16-4.48,8.16-5.85,12-16.2-2.06-31.77-7.28-46.7-15.67Zm71.04,41.67c-.93,2.74-2.14,5.37-3.63,7.88-.07-.11-.14-.21-.21-.32-1.62-2.52-2.9-4.3-3.83-5.32l-4.67-4.6-4.11-3.83c-.3-.49-.13-1.69.49-3.58.14-.43.3-.87.49-1.37.98-2.56,1.84-4.28,2.58-5.16.7-.93,1.51-1.74,2.44-2.44.93-.74,1.72-1.12,2.37-1.12.28,0,.53.12.77.35l.63.77c4.69,5.53,7.23,8.95,7.6,10.25.6,2,.3,4.83-.91,8.51Zm29.42,6.62c-.42,1.21-.88,2.02-1.39,2.44l-.28-.35-3.13-3.9c-.88-.84-3.18-2.37-6.9-4.6-3.53-2.18-5.65-3.39-6.34-3.63l-.28-.35c-.2-.8.07-2.27.81-4.39.12-.33.24-.68.38-1.05,1.02-2.84,2.16-4.93,3.42-6.27,1.16-1.25,2.39-2.21,3.7-2.86,1.02-.56,1.88-.81,2.58-.77l.7.28.28.42c5.25,6.6,7.88,11.62,7.88,15.06,0,4.18-.46,7.51-1.39,9.97Zm5.93-14.08c.1.52.28.94.52,1.29-.84.29-1.73.55-2.69.79-.24-1.23-.69-2.58-1.35-4.04-1.38-3.04-3.67-6.57-6.87-10.6l-.21-.35c-.65-.79-1.53-1.23-2.65-1.32-1.21-.05-2.56.33-4.04,1.12-1.53.79-2.95,1.91-4.25,3.35-1.49,1.63-2.84,4.02-4.04,7.18-.29.81-.53,1.56-.73,2.26-.52,1.87-.66,3.32-.46,4.38-1.71,0-3.4-.04-5.07-.09.29-1.82.32-3.43.06-4.82-.06-.33-.13-.66-.22-.96-.46-1.67-3.16-5.39-8.09-11.15l-.63-.77c-.74-.84-1.65-1.25-2.72-1.25-1.3,0-2.74.65-4.32,1.95-1.07.88-1.91,1.74-2.51,2.58-.88,1.16-1.88,3.15-2.99,5.98,0,0,0,.01,0,.02-.73,1.91-1.11,3.49-1.16,4.74-2.52-1.24-3.83-2.8-3.93-4.67-.14-2.65.07-5.44.63-8.37.98-5.39,3.21-10.81,6.69-16.24.28-.51.37-2.56.28-6.14l2.79.56,6.34.28,3.28-.49-3.21-.56-5.86-.98-3.42-.98v-.07c-1.07-.23-2.6-1.02-4.6-2.37-4.04-2.74-8.39-6.97-13.04-12.69-4.79-5.9-7.88-12.67-9.27-20.29-.74-4.04-1-9.37-.77-15.97.28-7.76,2.72-15.73,7.32-23.91l4.49-6.56c-2.69,2.58-5.18,5.51-7.46,8.77-.03-.51-.07-1-.1-1.52-.6-10.13-2.32-20.87-5.16-32.21-3.02-12.08-6.76-22.47-11.22-31.16-4.88-9.53-10.55-17.48-17.01-23.84-8.27-8.13-16.87-12.53-25.8-13.18-15.57-1.16-29.1,7.11-40.58,24.82,3.67-8.23,8.09-16.5,13.25-24.82,11.81-18.87,18.89-44.18,21.26-75.92.31-4.66.16-10.55-.47-17.67,0-.01-.02-.03-.02-.04-.12-1.43-.25-2.82-.39-4.2-.12-1.11-.24-2.23-.38-3.4-1.01-8.37-2.26-15.62-3.76-21.75-.02-.09-.04-.18-.07-.26-.21-.85-.42-1.67-.64-2.48-.09-.31-.18-.61-.27-.92,1.29.42,2.48,1.16,3.55,2.27l14.85,16.52,6.83,8.44,4.6,5.3c1.35,1.25,3.39,2.56,6.14,3.9,3.3,1.58,6.11,2.37,8.44,2.37.8,0,1.63-.12,2.47-.32.08,3.93.21,7.24.38,9.87l.21,2.37,1.37,8.79c.94,4.74,2.27,10,4,15.82,2.61,8.83,5.43,16.3,8.45,22.47-3.88.88-7.36,2.11-10.4,3.74-3.63,2-5.69,3.21-6.2,3.63l-.91.98c-.19.33-.21.72-.07,1.19.23.74,1.14.74,2.72,0l.05.08,8.94-3.99c7.06-2.65,12.06-3.46,14.99-2.44,3.44,1.25,5.95,2.63,7.53,4.11,1.44,1.3,2.51,3.09,3.21,5.37.84,2.84,1.12,5.9.84,9.2l2.93,1.67c2.18,1.35,3.86,2.65,5.02,3.9l6.14,6.62c3.07,3.11,5.53,5.35,7.39,6.69,4.04,2.88,8.62,4.11,13.73,3.7-.37,1.3-1.37,2.46-3,3.49l-3.49,2.44-2.86,1.67c-.74.6-1.14,1.46-1.19,2.58-.05,1.25.46,3.18,1.53,5.79,1.07,2.56,1.79,3.76,2.16,3.63l-.77-2.44c-.84-2.14-1.19-4.32-1.05-6.55,0-.46.3-.93.91-1.39.37-.23,1.28-.77,2.72-1.6l3.07-1.74c1.72-1.12,3.28-2.79,4.67-5.02l.56-1.25.98-3.63,1.74-8.02c.42-2.51.49-4.93.21-7.25l-.63-2.72c-3.02-2.93-5.02-4.6-6-5.02l-2.3-1.19c-.79-.84-1.19-2.3-1.19-4.39l.07-3.63-.28-1.53-3.9-2.93c-2.65-1.81-4.39-3.3-5.23-4.46-1.83-2.54-2.37-4.86-1.62-6.96.06.53.15,1.06.3,1.59.74,2.7,2.05,4.18,3.9,4.46l3.76.49c2.19.94,3.93,1.86,5.24,2.75.05.04.09.07.13.11.17.14.35.26.53.37.23.18.46.36.65.54,1.35,1.21,2.42,1.6,3.21,1.19s1.63-1.79,2.51-4.11c.79-2.28.95-4.81.49-7.6-.07-.38-.17-.78-.3-1.17l1.21.2,3.49-.35c.6-.33,2.28-2.84,5.02-7.53.66-1.11,1.24-2.11,1.75-3.02.61,4.34,1.62,6.79,3.06,7.34,1.3.51,3.7-.58,7.18-3.28,3.3-2.51,5.83-5.02,7.6-7.53.76-.96,1.29-2.01,1.62-3.16.42,1.93.29,3.45-.43,4.55-.7,1.02-1.44,2.72-2.23,5.09-.84,2.42-1.19,4-1.05,4.74.28,1.72,1.51,3.58,3.7,5.58l1.74,1.32c-1.08.38-2.06,1.03-2.92,1.95-1.58,1.77-3.21,4.79-4.88,9.06-1.63,4.14-2.18,6.44-1.67,6.9l7.11-.56c4.09-.79,6.74-1.51,7.95-2.16l2.72-2.3c.88-1.16,1.44-2.42,1.67-3.76.51-2.79-.16-5.11-2.02-6.97-.93-.96-1.93-1.64-2.99-2.06l.34-.1c2.74-.46,4.6.02,5.58,1.46,1.02,1.49,1.58,4.11,1.67,7.88.09,3.3-.09,5.39-.56,6.27l-3.97,2.86c-2.65,1.58-4.35,2.77-5.09,3.56l-4.46,5.3c-1.95,2.42-3.09,3.95-3.42,4.6-.74,1.25-2.32,2.21-4.74,2.86l-3.42.56-1.05,6.55c-1.07,5.44-2.58,10.69-4.53,15.76-2.28,5.86-4.09,9.81-5.44,11.85-1.16,1.72-2.88,3.32-5.16,4.81-2,1.3-4.51,2.07-7.53,2.3-2.79.23-4.83-.02-6.14-.77-.74-.37-2.39-2.11-4.95-5.23-2.7-3.3-4.76-5.48-6.2-6.55l-7.11-5.79c-3.39-2.84-6.16-4.97-8.3-6.41-2.84-1.95-8.13-3.56-15.9-4.81l-2.79-.36h0s-1.19,0-1.19,0c-.74.09-1.09.28-1.05.56.05.46,1.46.88,4.25,1.25l-3.07,2.16,1.6-.49,3-.56,2.65.21,3.42,1.39c2.65,1.21,4.93,2.46,6.83,3.76l5.02,3.28,4.81,3.49,6,6.19c2.45,4.59,4.32,8.49,5.57,11.66.37.95.74,1.89,1.1,2.81l.02-.03,1.19,2.86c.78,1.75,1.58,3.21,2.39,4.43.2.3.41.6.61.87l8.99,9.06c5.81,6.55,11.22,14.87,16.24,24.96,5.58,11.15,9.06,21.45,10.46,30.88,1.02,7.2.86,14.52-.49,21.96-.88,5.11-2.28,10.32-4.18,15.62l-2.79,7.67c-.33,1.63-.51,3.42-.56,5.37-.09,2,.02,3.14.35,3.42l4.6,3.7c3.3,2.79,5.55,5,6.76,6.62l6.69,8.44,1.6.84c1.16.65,1.84,1.23,2.02,1.74.01.04.02.07.04.11-.54-.39-1.13-.65-1.78-.74-.98-.09-2.07.21-3.28.91l-3.76,2.93c-1.58,1.39-3,3.42-4.25,6.07-.63,1.33-1.07,2.5-1.33,3.53-.25,1.02-.32,1.89-.21,2.61Zm-35.25-224.14c-2.13,1.46-3.65,2.62-4.56,3.48-.89.89-3.18,4.7-6.87,11.4l-5.32-6-.22-.25-1.19-1.32c-.84-.88-2.02-1.77-3.56-2.65l-3.56-1.95c0-.18-.01-.35-.01-.53,1-2.44,1.64-3.98,1.9-4.56,4.46-9.95,8.06-15.38,10.81-16.31.65-.23,1.54-.5,2.61-.79.29,1.19.78,2.32,1.5,3.37,1.12,1.67,3.3,3.86,6.55,6.55l1.19,1.05-.04,1.93-.03,1.42c-.1,2.12.18,3.84.79,5.16Zm2.54,2.5c.72.35,1.62.73,2.73,1.12l4.04,3.42c.33,1.49.28,4.39-.14,8.71l-1.19,7.88-5.44.42c-2.7-.09-5.02-.84-6.97-2.23-.99-.7-2.32-1.93-3.98-3.65,3.67-7.13,5.88-11.13,6.63-11.97,1.01-1.01,2.46-2.25,4.31-3.7Zm7.47-27.39c.51,3.16.49,5.72-.07,7.67l-.89,1.72-.15.3-.25-.25-.23-.23c-2.74-2.6-5.18-4.37-7.32-5.3l-2.02-.42-2.16-.21c-.56-.09-1.07-.65-1.53-1.67-.46-1.12-.65-2.3-.56-3.56.19-2.05,1-3.67,2.44-4.88,1.39-1.25,3.07-1.77,5.02-1.53,1.49.23,2.46.63,2.93,1.19l2.37,2.65c1.39,1.72,2.21,3.23,2.44,4.53Zm-1.48-7.3l1.07-2.46c1.53-3.3,2.93-5.48,4.18-6.55l3.56-2.23,5.02-3.14,1.36-1c-.29.85-.49,1.76-.59,2.75l-.28,1.53c-.28.93-1.39,3.09-3.35,6.48l-4.39,7.11-4.81-.63c-.06-.01-.17-.08-.32-.19-.43-.55-.91-1.11-1.45-1.68Zm18.64-16.19c1.12-2.46,2.35-4.16,3.7-5.09l6.07-.21c1.3.51,2.32,1.44,3.07,2.79.74,1.44,1,3.21.77,5.3-.19,1.58-.49,2.7-.91,3.35l-5.58,5.51c-3.39,3.16-5.55,4.86-6.48,5.09h-.07c-.74.09-1.25-2.16-1.53-6.76-.28-4.69.05-8.02.98-9.97Zm20.08,27.54c1.53-.23,2.97.35,4.32,1.74.79.79,1.25,1.7,1.39,2.72.19,1.39-.09,2.86-.84,4.39-.6,1.25-1.23,2.07-1.88,2.44l-6.14,2.16c-3.49,1.12-5.65,1.63-6.48,1.53-.42-.05.49-2.18,2.72-6.41,2.14-4.04,3.51-6.41,4.11-7.11.79-.84,1.72-1.32,2.79-1.46Zm-2.51,38.48l1.6,3.42.35,1.05,1.53,5.93c1.25,3.35,2.9,4.76,4.95,4.25.6-.14,2.23-1,4.88-2.58l3.42-1.46,2.86-.28,2.86,1.19c.79.33,1.37.7,1.74,1.12l.63,1.53.21,2.09c-.19,2.7.35,4.46,1.6,5.3l.28.21c3.9,2.65,7.13,3.58,9.69,2.79,1.21-.33,2.49-1.25,3.83-2.79.46-.51,2.42-.84,5.86-.98,4.69,10.69,7.46,21.4,8.3,32.14,1.12,14.13-1.49,26.49-7.81,37.09-9.57,16.04-21.15,26.12-34.72,30.26-5.2,1.59-10.34,2.24-15.4,1.99-.64-12.35-3.76-24.1-9.35-35.24-4.74-9.53-10.71-18.41-17.92-26.63l-11.29-11.92-.7-1.42c-1.04-2.79-2.16-5.68-3.34-8.69-.06-.16-.14-.33-.2-.49,1.04,1.02,1.69,1.61,1.95,1.74,1.95,1.07,4.62,1.56,8.02,1.46,3.81-.09,7.02-.98,9.62-2.65,2.93-1.91,5.48-5.25,7.67-10.04,2.79-6.04,5.95-16.17,9.48-30.4l4.32-.98c1.86-.7,3.16-1.67,3.9-2.93,1.23-2.06,2.33-3.82,3.32-5.31-.08.52-.16,1.05-.25,1.62-.51,3.07-1,5-1.46,5.79-.79,1.25-.93,2.53-.42,3.83Zm10.25,204.41c1.39,3.02,1.95,5.86,1.67,8.51-.12,1.28-.33,2.23-.64,2.9-.06.13-.12.27-.19.38-2.6-2.65-4.49-4.3-5.65-4.95l-10.46-4.18-1.67-.63-.28-.42c-.12-.73.17-1.92.86-3.55.14-.34.29-.68.47-1.05,1.12-2.28,2.32-4,3.63-5.16,2.6-2.23,4.3-3.3,5.09-3.21.33,0,.6.16.84.49l3,4.6,3.35,6.27Zm-4.51-17.24c-.55-.45-1.18-.88-1.91-1.31l-2.37-2.79-3.21-3.9c-.29-.38-.65-.79-1.04-1.22,18.26-2.21,35.92-9.3,52.98-21.3,5.72-4.04,11.06-9.06,16.04-15.06-16.89,24.22-37.06,39.4-60.49,45.58Zm68.16-231.86c.42.88.49,1.53.21,1.95-.56.65-1.05,1.39-1.46,2.23-.42.88-.63,2-.63,3.35,0,1.63-.23,3.07-.7,4.32-.46,1.44-1.51,2.42-3.14,2.93-2.09.65-3.46,1.3-4.11,1.95l-.68.9s.08-.08.13-.13c-1.02,1.86-1.53,3.79-1.53,5.79,0,.88.23,1.91.7,3.07.33.74,1.25,1.28,2.79,1.6,1.49.23,2.28.67,2.37,1.32.09.74-.42,1.58-1.53,2.51l-2.65,2.3c-.7.88-1.07,1.79-1.12,2.72-.09,1.07.28,1.88,1.12,2.44.93.65,2.28-.26,4.04-2.72l3.97-5.37c1.49-1.25,4.69-3.07,9.62-5.44l-4.46,3.83c-.65.56-1.28,1.37-1.88,2.44l-.7,1.46,2.79-1.88c2.23-1.44,4.21-2.65,5.93-3.63,2.79-1.49,7.39-3.42,13.8-5.79l-18.34,13.18c-2.18,1.72-4.3,3.83-6.34,6.34-1.91,2.42-3.11,4.39-3.63,5.93-.42,1.16-1.39,2.37-2.93,3.63l-3.21,2.44c-.42.46-.53,1.14-.35,2.02l.07,3.49c-.19.79-.65,1.51-1.39,2.16l-10.32-11.15-4.46-3.97-2.44-1.74,2.62,3.56.23.21,1.85,2.62.38.52h-.02s.29.42.29.42l8.44,11.36c7.3,10.41,13.34,22.59,18.13,36.53,4.6,13.39,6.9,24.98,6.9,34.79,0,13.66-3.3,26.52-9.9,38.55-6,10.88-13.87,19.61-23.63,26.21-17.64,11.91-35.87,18.67-54.69,20.28-2.08-1.88-4.73-4.05-7.98-6.55,0-2.28.19-4.53.56-6.76.77-1.32,1.54-2.78,2.3-4.36.94-1.95,1.86-4.09,2.78-6.44,3.39-8.46,5.09-16.34,5.09-23.63,0,0,0-.01,0-.02,5.28.17,10.67-.57,16.17-2.21,14.97-4.46,27.56-15.22,37.79-32.28,6.6-11.02,9.11-24.08,7.53-39.18-1.16-10.88-4.3-22.19-9.41-33.95-2.56-5.86-4.74-10.32-6.55-13.39l-.11-.52-1.35-2.47.28,2.37c.42,2.14,1.14,4.69,2.16,7.67h0s1.4,3.76,1.4,3.76l-.7-.14c-1.07-.23-2.42.51-4.04,2.23l-3.63,3.28c-1.44.37-4.23-.81-8.37-3.56-.74-.51-1.09-1.19-1.05-2.02.09-1.35,0-2.39-.28-3.14-.42-1.21-1.25-2.14-2.51-2.79-1.63-.6-2.93-1.19-3.9-1.74l-5.3.28-5.02,2.02c-1.16.28-2.39-.51-3.7-2.37-.98-1.44-1.79-3.11-2.44-5.02l-1.05-3.7c-.19-1.16.07-2.3.77-3.42.65-1.07,1.02-3.65,1.12-7.74l-.06-3.7c.37-.48.72-.91,1.04-1.25.23-.33.98-.7,2.23-1.12l2.86-1.12,3.28-2.16c.88-.65,1.51-1.35,1.88-2.09.56-1.12.63-4.18.21-9.2-.11-1.28-.22-2.42-.34-3.43,2.45.88,5.43,2.06,8.97,3.56.79.34,1.61.69,2.45,1.05l4.11,1.74,2.65.35c1.21-.14,2.51-.88,3.9-2.23l6.07-6.62c2.55-3.02,4.64-5.38,6.26-7.09,1.73-1.81,2.94-2.89,3.63-3.23,2.93-1.44,7.85-2.32,14.78-2.65.62-.02,1.22-.02,1.83-.03.18.67.5,1.33.96,1.99l2.58,3.49Zm62.96,32.42v-.03c-5.63-5.15-11.11-10.04-16.45-14.68-14.36-12.46-24.12-19.8-29.28-22.03-6.27-2.7-13.85-3.74-22.73-3.14-7.06.46-12.36,1.58-15.9,3.35-1.53.74-4.79,3.86-9.76,9.34-4.6,5.02-7.79,7.69-9.55,8.02-1.07.23-3.16-.28-6.27-1.53l-9.69-3.9c-.63-.22-1.26-.43-1.88-.63-.26-1.49-.54-2.46-.84-2.93-1.16-1.77-3.04-2.56-5.65-2.37l-6.34,1.19-2.51-2.93c-1.07-1.35-1.67-2.3-1.81-2.86.09-.56.53-1.65,1.32-3.28l1.95-3.69c1.72-2.6,1.72-5.97,0-10.11-.23-.56-.48-1.08-.74-1.59-1.32-2.59-2.97-4.57-4.95-5.92-.68-.6-1.44-1.1-2.33-1.49-.79-.34-1.55-.6-2.3-.76,2.75-2.22,4.38-3.85,4.88-4.88l1.25-4.95,1.67-10.53,2.37-16.59c1.07-7.06,2.21-12.9,3.42-17.5l7.46-28.44c2.23-8.27,3.6-12.83,4.11-13.66,1.25-1.95,3.44-3.51,6.55-4.67,2.84-1.12,5.48-1.56,7.95-1.32,2.32.37,10.78,3.07,25.38,8.09,15.94,5.44,24.8,9.04,26.56,10.81,8.09,8.13,18.73,23.29,31.93,45.46,15.01,25.19,24.75,46.06,29.21,62.61l4.32,48.11-11.36-10.53Zm19.73,6l-.21,15.48c-.19,1.63-.49,2.81-.91,3.56-.56.98-1.37,1.44-2.44,1.39-.7-.05-1.21-.98-1.53-2.79-.23-1.25-.35-2.65-.35-4.18l-.14-6.2-4.74-51.38v-.28c-4.6-17.01-14.2-38.32-28.79-63.93-13.25-23.19-23.82-38.72-31.72-46.57-2.18-2.23-11.97-6.25-29.35-12.06-16.08-5.44-24.63-8.16-25.66-8.16-2.88-.23-5.81.4-8.78,1.88-2.97,1.53-5.25,3.58-6.83,6.14-1.58,2.51-5.81,16.83-12.69,42.95-2.05,7.95-4.25,19.73-6.62,35.35-1.35,8.83-2.23,13.66-2.65,14.5-.74,1.39-6.55,6-17.43,13.8l-7.95,5.86c-1.58,1.3-3.25,3.37-5.02,6.2-.44.68-.97,1.57-1.58,2.65l-.58-.42-3.07-.84c-2.74-.23-5.04.51-6.9,2.23-1.16,1.03-2.01,2.21-2.58,3.55-1.24.95-2.15,2.64-2.72,5.1-.08.37-.15.74-.2,1.11-.78.24-1.5.48-2.17.71-3.53,1.21-8.16,6.93-13.87,17.15,0,0,0,.01,0,.02-.43-1.77-1-3.3-1.73-4.55-1.81-2.97-4.95-5.28-9.41-6.9-.56-.2-1.18-.35-1.85-.45l.11-.31c1.21-3.11,2.23-4.97,3.07-5.58,1.16-.79,3.11-1.16,5.86-1.12l3.7.28,13.18-8.92,16.1-11.02c1.91-1.44,6.44-5.62,13.59-12.55,7.11-6.93,10.85-10.78,11.22-11.57,2.37-5.11,6.76-21.71,13.18-49.78,6.6-29,9.64-46.08,9.13-51.24-.19-1.81-2.79-6.23-7.81-13.25l-9.48-12.41c-1.35-1.67-2.28-3.6-2.79-5.79-.6-2.32-.51-4.18.28-5.58.79-1.35,2.37-1.56,4.74-.63,2.09.79,4.23,2.18,6.41,4.18l11.29,11.5,10.39,10.53,5.93.98,8.16,1.74c1.91.65,11.81,5.28,29.7,13.87l12.13,3.42c6.18,1.58,9.53,2.6,10.04,3.07,4.42,4.23,13.9,18.75,28.44,43.57l22.03,38.07,6.55,8.85,5.37,8.16c1.53,3.86,3.58,12.99,6.14,27.4,2.56,14.27,3.83,23.59,3.83,27.96v15.27Zm-403.46-4.04l2.3-1.05c-2.09,2.09-4.65,3.14-7.67,3.14-.14,0-.28,0-.42-.01-2.48-.06-5.08-.68-7.8-1.87-3.39-1.44-5.32-3.23-5.79-5.37-.08-.34-.12-.69-.14-1.05-.02-.25-.02-.52,0-.78,0-.06,0-.12,0-.19.13-1.99.99-4.31,2.58-6.96.07-.12.13-.24.21-.36.52-.83.99-1.54,1.41-2.15,1.37-2,2.21-2.87,2.49-2.59l-2.86,4.95c-1.91,3.67-2.63,6.6-2.16,8.78.42,1.67,2.09,3.23,5.02,4.67,2.74,1.35,5.28,2.02,7.6,2.02,1.63,0,3.37-.4,5.23-1.19Zm47.9,159.1l2.16.28-2.09.56-3.83-.14c-1.07-.19-2.14-.6-3.21-1.25-.93-.6-1.32-1-1.19-1.19l1.39.42,2.93.98,3.83.35Zm174.15-166.56c-.33-2.18.74-4.79,3.21-7.81,1.21-1.49,2.46-2.77,3.76-3.83.79-.6,2.16-1.3,4.11-2.09.34-.14.64-.26.92-.37.36-.14.68-.26.95-.35.69-.23,1.07-.3,1.13-.19l-2.44,1.39-3.7,2.09c-1.25.98-2.63,2.63-4.11,4.95-1.72,2.79-2.46,5.04-2.23,6.76.42,3.02,2.16,5.88,5.23,8.58l4.32,3.28c-.23.6-1.95-.4-5.16-3-3.49-2.84-5.48-5.97-6-9.41Zm-18.27,191.72l-3.56.84-5.44.49-3.9-.84c-1.35-.46-1.98-.81-1.88-1.05l1.74.21,3.56.49,5.72-.14c2.51-.14,3.76-.14,3.76,0Zm-66.3-298.11c1.63-1.07,3.02-1.6,4.18-1.6s2.63.3,4.25.91l3.28,1.25,2.79.35,2.44-.07,1.32-.35.77.14c.14.37-.23.72-1.12,1.05l-3.35.56c-2.14,0-4.32-.56-6.55-1.67-.56-.28-1.51-.49-2.86-.63l-2.65-.07c-.56.09-2.11,1.42-4.67,3.97-.93.93-1.63,1.07-2.09.42-.33-.42.12-1.12,1.32-2.09l2.93-2.16Zm9.13,9.55c.33.28.42.53.28.77l-.84.14-3.07-.84-2.44.7c-1.02.14-1.72-.05-2.09-.56-.19-.28.16-.74,1.05-1.39.88-.6,1.6-.93,2.16-.98.51-.05,1.39.23,2.65.84l2.3,1.32Zm18.61-5.37c.33-.65,1.16-1.91,2.51-3.76.33-.56.91-1.14,1.74-1.74.84-.65,1.3-.91,1.39-.77.23.28.09.74-.42,1.39l-1.25,1.39-2.37,3.63c-.37.65-.79.93-1.25.84-.51-.14-.63-.46-.35-.98Zm-31.37-48.45l-.21-.77c0-.33.12-.53.35-.63l1.19.56.91,2.51.91,1.25.49,1.12-.56,1.32c-.42.37-.77.51-1.05.42-.33-.14-.49-1-.49-2.58l-.63-1.6-.91-1.6Zm-5.37,23.7c-.46-.33-.21-1.23.77-2.72l.91-1.19.91-1.39,1.74-4.18,1.67-4.39c.7-2.37,1.16-3.46,1.39-3.28.42.19.28,1.63-.42,4.32l-3.21,9.13-1.81,2.44c-1.02,1.02-1.67,1.44-1.95,1.25Zm21.82-15.41l.14-1.53.77-3.14c.33-2.51.63-3.79.91-3.83l.35,1.12.07,1.95-.42,3.35c0,2.23-.37,3.28-1.12,3.14-.46-.09-.7-.44-.7-1.05Zm144.52,78.71c.19,1.49.16,2.81-.07,3.97-.19,1.07-.49,1.63-.91,1.67-.84.09-1.42-1.72-1.74-5.44-1.53-15.43-4.6-31-9.2-46.71-3.13-10.71-6.43-19.7-9.9-27-1.28-2.68-2.58-5.14-3.9-7.37-1.07-1.77-1.39-2.74-.98-2.93.33-.14.81.07,1.46.63l1.25,1.32c1.79,2.38,3.55,5.32,5.29,8.82,3.07,6.2,6.05,14.16,8.94,23.88,4.69,15.71,7.95,32.09,9.76,49.15Zm-2.93-66.65c10.88,30.03,14.97,58.63,12.27,85.82l-.28,3.49c-.23,1.95-.51,2.93-.84,2.93-.28,0-.58-.86-.91-2.58l-.42-3.21c1.12-35.51-3.11-64.26-12.69-86.24-.53-1.19-.89-2.15-1.09-2.9-.3-1.1-.27-1.75.12-1.91.33-.14,1.02.51,2.09,1.95l.58.88,1.16,1.77Zm-302.3,29.98c.81-8.01,1.85-14.56,3.12-19.68,1.06-4.27,2.27-7.55,3.64-9.81l.91-1.39c.42-.6.77-.86,1.05-.77.33.09.49.56.49,1.39l-.28,1.81c-.73,2.02-1.41,4.24-2.05,6.66-1.71,6.5-3.07,14.46-4.09,23.87-1.53,13.8-1.84,26.56-.91,38.28v2.58c-.09,1.3-.3,1.95-.63,1.95s-.65-.65-.98-1.95l-.42-2.51c-1.44-12.08-1.39-25.56.14-40.44Zm-11.64,65.26c-1.63-12.04-1.51-25.24.35-39.6,1.58-12.55,4.39-25.52,8.44-38.9.42-1.39.86-2.02,1.32-1.88.33.05.53.42.63,1.12v1.53c-3.21,12.5-5.62,25.31-7.25,38.41-1.72,13.94-2.37,27.05-1.95,39.32,0,2.7-.23,4.07-.7,4.11-.33,0-.56-.58-.7-1.74l-.14-2.37Zm137.62-100.11c-.46-.56-.7-1.21-.7-1.95,0-.33.05-.64.14-.93.47-.05.92-.27,1.32-.67l.43-1.04c.18-.04.36-.07.55-.07.6,0,1.14.28,1.6.84.46.56.7,1.21.7,1.95l-.49,1.81-1.6.91c-.79,0-1.44-.28-1.95-.84Zm-14.92-16.17l-.14,1.46-.35,3.7c-.28,2.37-.42,4.21-.42,5.51,0,1.58.37,2.95,1.12,4.11.65,1.07,1.49,1.81,2.51,2.23l10.88,2.65c4.28.93,7.13,1.39,8.58,1.39l1.74.35c.6.23.95.46,1.05.7l.35.91.56.42c.42-.14.58-.44.49-.91l-.49-1.25-3.63-7.6c-.19-.51-.65-1.09-1.39-1.74l-1.67-1.46-6.97-5.79c-3.39-2.51-6.65-4.65-9.76-6.41-2.7-1.53-4.14-2.18-4.32-1.95-.14.23.44,1.05,1.74,2.44l.14,1.25Zm10.38,5.27l1.82,1.29c.7.52,1.59,1.21,2.65,2.05.26.2.52.41.8.63,1.03.82,2.2,1.75,3.52,2.82.79.65,1.32,1.32,1.6,2.02l1.35,2.98,1.02,2.25c.05.33-.12.51-.49.56l-2.02-.21-7.81-1.57c-.57-.96-1.05-1.95-1.44-2.96-.85-2.2-1.28-4.52-1.28-6.97l.27-2.89Zm-9.33,2.96l.7-6.34c.28-1.49,1-1.88,2.16-1.19l5.1,3.6c-.23,1.47-.36,2.76-.36,3.86,0,3.48.78,6.65,2.33,9.52l-4.91-1.16c-3.07-.84-4.72-1.72-4.95-2.65-.23-.98-.26-2.86-.07-5.65Z"/>
    </g>
  </g>
</svg>